<svg width="20" height="20" viewBox="0 0 20 20" fill="none" xmlns="http://www.w3.org/2000/svg">
<g id="Call / undefined / Glyph: undefined">
<path id="Vector" d="M5.05694 0.418438L6.22394 0.0666781C7.54645 -0.331962 8.9594 0.312268 9.5258 1.5721L10.4275 3.57782C10.9102 4.65165 10.6558 5.91366 9.7948 6.71661L8.3005 8.1101C8.2568 8.1508 8.2291 8.2058 8.2225 8.2652C8.1781 8.6623 8.4474 9.4357 9.0676 10.51C9.5187 11.2913 9.9269 11.8391 10.2744 12.1473C10.5165 12.362 10.6498 12.4084 10.7065 12.3915L12.7169 11.7769C13.8425 11.4328 15.0623 11.8431 15.751 12.7976L17.0317 14.5726C17.8378 15.6898 17.6928 17.2311 16.6926 18.1784L15.8062 19.0178C14.8498 19.9236 13.4882 20.2611 12.2195 19.907C9.4654 19.1383 6.99608 16.8141 4.78421 12.9831C2.56926 9.1467 1.79207 5.84222 2.50852 3.07043C2.83639 1.80195 3.80252 0.796558 5.05694 0.418438ZM5.48984 1.85461C4.73719 2.08148 4.15751 2.68472 3.96079 3.44581C3.35814 5.77732 4.047 8.7062 6.08325 12.2331C8.1168 15.7552 10.3057 17.8155 12.6227 18.4622C13.384 18.6747 14.2009 18.4722 14.7748 17.9287L15.6611 17.0893C16.1158 16.6587 16.1817 15.9581 15.8153 15.4503L14.5346 13.6753C14.2215 13.2415 13.667 13.0549 13.1554 13.2114L11.1401 13.8275C9.9704 14.1762 8.9087 13.2347 7.7686 11.26C7.00029 9.9293 6.6422 8.9006 6.73177 8.0987C6.77817 7.68322 6.97174 7.29812 7.27746 7.01303L8.7718 5.61958C9.1632 5.2546 9.2788 4.68096 9.0594 4.19286L8.1577 2.18714C7.90026 1.61449 7.25798 1.32165 6.65684 1.50285L5.48984 1.85461Z" fill="#6F7373"/>
</g>
</svg>
