<svg width="130" height="130" viewBox="0 0 130 130" fill="none" xmlns="http://www.w3.org/2000/svg">
<path d="M90 50C112.056 50 130 67.944 130 90C130 96.372 128.46 102.686 125.536 108.344L129.814 123.658C130.298 125.392 129.808 127.262 128.534 128.536C127.584 129.486 126.304 130 124.992 130C124.544 130 124.094 129.94 123.652 129.816L108.33 125.538C102.676 128.46 96.366 130 90 130C67.944 130 50 112.056 50 90C50 67.944 67.944 50 90 50Z" fill="#f6e5cf"/>
<path d="M100 50C100 77.57 77.57 100 50 100C42.0425 100 34.155 98.075 27.0875 94.4275L7.935 99.775C7.3825 99.925 6.82 100 6.26 100C4.6225 100 3.02 99.355 1.8325 98.17C0.239999 96.575 -0.3725 94.24 0.2325 92.0725L5.58 72.93C1.925 65.855 0 57.9625 0 50C0 22.4275 22.43 0 50 0C77.57 0 100 22.4275 100 50ZM50 45C47.2375 45 45 47.2375 45 50C45 52.7625 47.2375 55 50 55C52.7625 55 55 52.7625 55 50C55 47.2375 52.7625 45 50 45ZM67.5 45C64.7375 45 62.5 47.2375 62.5 50C62.5 52.7625 64.7375 55 67.5 55C70.2625 55 72.5 52.7625 72.5 50C72.5 47.2375 70.2625 45 67.5 45ZM32.5 45C29.7375 45 27.5 47.2375 27.5 50C27.5 52.7625 29.7375 55 32.5 55C35.2625 55 37.5 52.7625 37.5 50C37.5 47.2375 35.2625 45 32.5 45Z" fill="#FF9830"/>
</svg>
