<svg width="654" height="527" viewBox="0 0 654 527" fill="none" xmlns="http://www.w3.org/2000/svg">
<mask id="mask0_683_15278" style="mask-type:luminance" maskUnits="userSpaceOnUse" x="0" y="0" width="654" height="410">
<path d="M1.47061 225.746C6.4309 263.269 23.8349 299.451 52.0766 328.519C110.005 388.143 207.688 414.662 300.855 409.332C448.083 400.911 647.843 308.044 653.846 169.542C660.268 21.4046 464.041 2.2879 330.082 0.109619C196.797 -2.05798 49.7673 27.2158 8.49795 150.982C0.365835 175.369 -1.82045 200.853 1.47061 225.746Z" fill="white"/>
</mask>
<g mask="url(#mask0_683_15278)">
<path d="M-4.7168 422.008H709.101V-1.40723H-4.7168V422.008Z" fill="#F3FAFC"/>
<path d="M658.318 293.81C658.318 293.81 649.457 287.319 648.512 288.129L648.227 277.587H648.415C648.631 277.587 648.829 277.471 648.923 277.288L650.495 274.207C650.674 273.859 650.411 273.463 650.005 273.463H648.119L647.294 204.114H647.808C648.006 204.114 648.188 203.999 648.273 203.818L649.711 200.778C649.874 200.435 649.633 200.043 649.26 200.043H647.329C647.673 198.879 647.746 197.428 647.091 195.843C646.336 194.018 645.436 192.623 643.976 191.261C642.935 190.287 642.109 189.838 641.592 189.63L641.567 188.847C641.89 188.636 642.109 188.264 642.11 187.838C642.111 187.381 641.862 186.987 641.499 186.785L640.96 182.864L640.42 186.784C640.057 186.985 639.807 187.38 639.807 187.838C639.809 188.266 640.028 188.638 640.354 188.848L640.327 189.665C639.833 189.885 639.064 190.341 638.005 191.286C636.526 192.608 635.659 194.073 634.915 195.906C634.279 197.467 634.344 198.893 634.677 200.043H632.847C632.473 200.043 632.233 200.435 632.395 200.778L633.834 203.818C633.919 203.999 634.101 204.114 634.299 204.114H634.795L634.021 273.463H632.102C631.695 273.463 631.433 273.859 631.61 274.207L633.183 277.288C633.278 277.471 633.476 277.587 633.691 277.587H633.85L633.824 280.715C632.677 279.677 630.238 278.22 630.238 278.22C626.055 275.004 622.105 271.954 621.591 269.303C622.261 269.072 622.748 268.418 622.748 267.64C622.748 266.829 622.219 266.151 621.505 265.949L621.009 259.767L620.514 265.949C619.8 266.151 619.269 266.829 619.269 267.64C619.269 268.418 619.757 269.072 620.428 269.303C619.91 271.968 615.92 275.038 611.71 278.274C609.939 279.636 608.091 281.071 606.33 282.58L605.798 262.949H606.15C606.552 262.949 606.921 262.729 607.095 262.389L610.024 256.654C610.355 256.006 609.866 255.265 609.108 255.265H605.6L604.062 126.129H605.018C605.387 126.129 605.726 125.913 605.885 125.576L608.563 119.916C608.866 119.277 608.417 118.547 607.722 118.547H604.128C604.766 116.379 604.903 113.678 603.682 110.725C602.278 107.328 600.601 104.729 597.884 102.191C595.944 100.381 594.404 99.5432 593.444 99.1564L593.395 97.6963C593.999 97.3049 594.405 96.6138 594.407 95.8181C594.409 94.9679 593.945 94.2361 593.27 93.8598L592.265 86.555L591.263 93.8563C590.584 94.2315 590.118 94.9656 590.121 95.8181C590.122 96.6161 590.531 97.3084 591.138 97.6998L591.089 99.2191C590.168 99.6302 588.735 100.479 586.764 102.24C584.008 104.703 582.393 107.43 581.008 110.84C579.825 113.749 579.946 116.405 580.564 118.547H577.159C576.463 118.547 576.015 119.277 576.317 119.916L578.994 125.576C579.155 125.913 579.492 126.129 579.861 126.129H580.787L579.343 255.265H575.773C575.013 255.265 574.526 256.006 574.857 256.654L577.785 262.389C577.959 262.729 578.328 262.949 578.731 262.949H579.024L578.977 264.847C576.066 262.21 572.876 259.748 569.858 257.427C564.011 252.932 558.469 248.669 557.751 244.967C558.681 244.648 559.36 243.739 559.36 242.658C559.36 241.53 558.623 240.588 557.633 240.308L556.944 231.723L556.255 240.308C555.263 240.588 554.528 241.53 554.528 242.658C554.528 243.739 555.206 244.648 556.135 244.967C555.418 248.669 549.875 252.932 544.029 257.427C540.454 260.175 536.633 263.119 533.329 266.321H533.274V266.373C532.435 267.187 531.635 268.021 530.876 268.87L529.937 234.417H530.545C530.78 234.417 530.993 234.28 531.095 234.066L532.798 230.469C532.99 230.062 532.705 229.598 532.262 229.598H529.979C530.384 228.22 530.469 226.504 529.695 224.628C528.803 222.467 527.738 220.817 526.01 219.203C524.778 218.052 523.799 217.519 523.188 217.274L523.157 216.347C523.542 216.097 523.8 215.658 523.801 215.153C523.802 214.612 523.506 214.147 523.076 213.908L522.438 209.265L521.801 213.906C521.37 214.144 521.075 214.611 521.076 215.153C521.077 215.66 521.336 216.1 521.723 216.348L521.692 217.315C521.106 217.576 520.195 218.115 518.942 219.235C517.191 220.799 516.164 222.532 515.283 224.701C514.532 226.549 514.61 228.238 515.002 229.598H512.837C512.395 229.598 512.111 230.062 512.302 230.469L514.005 234.066C514.106 234.28 514.321 234.417 514.556 234.417H515.143L514.508 259.279C510.052 255.29 505.214 251.551 500.623 248.023C491.404 240.934 482.664 234.213 481.532 228.376C482.999 227.871 484.068 226.437 484.068 224.732C484.068 222.955 482.908 221.471 481.345 221.028L480.258 207.492L479.173 221.028C477.61 221.471 476.45 222.955 476.45 224.732C476.45 226.437 477.519 227.871 478.984 228.376C477.852 234.213 469.113 240.934 459.893 248.023C456.712 250.469 453.411 253.018 450.198 255.676L449.806 241.21H450.063C450.357 241.21 450.627 241.049 450.755 240.8L452.896 236.608C453.137 236.135 452.781 235.592 452.227 235.592H449.661L448.537 194.342H449.236C449.507 194.342 449.753 194.184 449.871 193.938L451.828 189.799C452.049 189.332 451.722 188.798 451.213 188.798H448.585C449.052 187.214 449.152 185.239 448.26 183.08C447.233 180.597 446.007 178.698 444.019 176.843C442.603 175.517 441.478 174.905 440.775 174.623L440.741 173.555C441.181 173.27 441.478 172.763 441.478 172.183C441.479 171.561 441.142 171.026 440.647 170.75L439.913 165.411L439.18 170.748C438.685 171.022 438.343 171.559 438.344 172.183C438.347 172.766 438.646 173.272 439.089 173.558L439.053 174.669C438.381 174.97 437.333 175.589 435.891 176.877C433.877 178.678 432.697 180.671 431.684 183.165C430.818 185.29 430.907 187.232 431.359 188.798H428.87C428.361 188.798 428.033 189.332 428.254 189.799L430.212 193.938C430.329 194.184 430.576 194.342 430.846 194.342H431.522L430.467 235.592H427.856C427.634 235.592 427.446 235.681 427.313 235.815C427.065 235.246 426.819 234.68 426.548 234.106C422.468 225.485 415.878 217.521 408.219 210.088V209.949H408.077C399.431 201.578 389.438 193.875 380.088 186.685C364.794 174.927 350.297 163.777 348.421 154.096C350.852 153.258 352.627 150.881 352.627 148.054C352.627 145.105 350.701 142.641 348.108 141.907L345.583 123.799L344.505 141.907C341.913 142.641 339.988 145.105 339.988 148.054C339.988 150.881 341.761 153.258 344.192 154.096C342.316 163.777 327.819 174.927 312.526 186.685C303.176 193.875 293.18 201.578 284.535 209.949H284.395V210.088C276.736 217.521 270.145 225.485 266.066 234.106C265.831 234.604 265.62 235.098 265.399 235.592H263.672L262.618 194.342H263.293C263.564 194.342 263.811 194.184 263.927 193.938L265.885 189.799C266.106 189.332 265.778 188.798 265.269 188.798H262.78C263.231 187.232 263.32 185.29 262.456 183.165C261.442 180.671 260.262 178.678 258.247 176.877C256.806 175.589 255.759 174.97 255.086 174.669L255.05 173.558C255.494 173.272 255.793 172.766 255.794 172.183C255.795 171.559 255.455 171.022 254.959 170.748L254.225 165.411L253.491 170.75C252.997 171.026 252.659 171.561 252.66 172.183C252.661 172.763 252.958 173.27 253.399 173.555L253.363 174.623C252.661 174.905 251.537 175.517 250.119 176.843C248.131 178.698 246.906 180.597 245.879 183.08C244.987 185.239 245.086 187.214 245.554 188.798H242.926C242.418 188.798 242.09 189.332 242.31 189.799L244.269 193.938C244.385 194.184 244.632 194.342 244.902 194.342H245.601L244.477 235.592H241.913C241.359 235.592 241.002 236.135 241.243 236.608L243.385 240.8C243.512 241.049 243.781 241.21 244.075 241.21H244.333L243.94 255.676C240.728 253.018 237.426 250.469 234.246 248.023C225.026 240.934 216.286 234.213 215.155 228.376C216.621 227.871 217.689 226.437 217.689 224.732C217.689 222.955 216.53 221.471 214.967 221.028L213.881 207.492L212.794 221.028C211.231 221.471 210.071 222.955 210.071 224.732C210.071 226.437 211.14 227.871 212.607 228.376C211.475 234.213 202.735 240.934 193.515 248.023C188.927 251.551 184.086 255.29 179.631 259.279L178.996 234.417H179.584C179.819 234.417 180.033 234.28 180.134 234.066L181.836 230.469C182.029 230.062 181.744 229.598 181.301 229.598H179.136C179.53 228.238 179.607 226.549 178.855 224.701C177.974 222.532 176.949 220.799 175.197 219.235C173.943 218.115 173.033 217.576 172.448 217.315L172.417 216.348C172.802 216.1 173.063 215.66 173.064 215.153C173.065 214.611 172.768 214.144 172.337 213.906L171.7 209.265L171.062 213.908C170.632 214.147 170.337 214.612 170.339 215.153C170.34 215.658 170.598 216.097 170.981 216.347L170.951 217.274C170.34 217.519 169.363 218.052 168.13 219.203C166.402 220.817 165.336 222.467 164.444 224.628C163.669 226.504 163.755 228.22 164.161 229.598H161.876C161.434 229.598 161.15 230.062 161.341 230.469L163.044 234.066C163.145 234.28 163.36 234.417 163.595 234.417H164.203L163.263 268.87C162.505 268.021 161.704 267.187 160.865 266.373V266.321H160.811C157.506 263.119 153.685 260.175 150.11 257.427C144.263 252.932 138.721 248.669 138.003 244.967C138.934 244.648 139.612 243.739 139.612 242.658C139.612 241.53 138.875 240.588 137.885 240.308L137.196 231.723L136.507 240.308C135.515 240.588 134.78 241.53 134.78 242.658C134.78 243.739 135.458 244.648 136.387 244.967C135.669 248.669 130.128 252.932 124.282 257.427C121.263 259.748 118.073 262.21 115.162 264.847L115.114 262.949H115.409C115.811 262.949 116.18 262.729 116.353 262.389L119.282 256.654C119.614 256.006 119.125 255.265 118.366 255.265H114.795L113.353 126.129H114.278C114.646 126.129 114.984 125.913 115.144 125.576L117.822 119.916C118.125 119.277 117.676 118.547 116.98 118.547H113.575C114.192 116.405 114.314 113.749 113.131 110.84C111.745 107.43 110.131 104.703 107.375 102.24C105.403 100.479 103.971 99.6302 103.05 99.2191L103.001 97.6998C103.609 97.3084 104.016 96.6161 104.019 95.8181C104.021 94.9656 103.555 94.2315 102.877 93.8563L101.874 86.555L100.869 93.8598C100.194 94.2361 99.7306 94.9679 99.7317 95.8181C99.7339 96.6138 100.139 97.3049 100.743 97.6963L100.695 99.1564C99.7339 99.5432 98.1952 100.381 96.2555 102.191C93.5382 104.729 91.8611 107.328 90.4565 110.725C89.2368 113.678 89.372 116.379 90.0112 118.547H86.4176C85.7219 118.547 85.2733 119.277 85.5757 119.916L88.2543 125.576C88.4138 125.913 88.7516 126.129 89.1205 126.129H90.0776L88.539 255.265H85.0318C84.273 255.265 83.7845 256.006 84.1157 256.654L87.0446 262.389C87.2185 262.729 87.5874 262.949 87.9895 262.949H88.3418L87.809 282.58C86.0487 281.071 84.1999 279.636 82.4286 278.274C78.2191 275.038 74.229 271.968 73.7117 269.303C74.3808 269.072 74.8693 268.418 74.8693 267.64C74.8693 266.829 74.3398 266.151 73.6264 265.949L73.1301 259.767L72.6339 265.949C71.9205 266.151 71.391 266.829 71.391 267.64C71.391 268.418 71.8784 269.072 72.5486 269.303C72.0313 271.968 68.0411 275.038 63.8306 278.274C63.2158 278.747 57.5075 283.34 56.1262 284.678H56.0874V284.717C55.0461 285.727 54.079 286.773 53.2294 287.859L52.9514 277.587H53.1397C53.3557 277.587 53.554 277.471 53.6481 277.288L55.22 274.207C55.3973 273.859 55.1358 273.463 54.7282 273.463H52.845L52.0186 204.114H52.5326C52.7298 204.114 52.9115 203.999 52.9979 203.818L54.4357 200.778C54.5986 200.435 54.3571 200.043 53.9838 200.043H52.0541C52.3975 198.879 52.4706 197.428 51.8148 195.843C51.0604 194.018 50.1598 192.623 48.7009 191.261C47.6596 190.287 46.8332 189.838 46.3159 189.63L46.2905 188.847C46.615 188.636 46.8333 188.264 46.8344 187.838C46.8355 187.381 46.5862 186.987 46.2229 186.785L45.6834 182.864L45.1453 186.784C44.7809 186.985 44.5308 187.38 44.5317 187.838C44.533 188.266 44.7523 188.638 45.0782 188.848L45.0519 189.665C44.5577 189.885 43.7883 190.341 42.729 191.286C41.25 192.608 40.3828 194.073 39.6385 195.906C39.0033 197.467 39.0683 198.893 39.4006 200.043H37.5715C37.198 200.043 36.957 200.435 37.1193 200.778L38.5577 203.818C38.6433 203.999 38.8251 204.114 39.0228 204.114H39.5196L38.745 273.463H36.8268C36.4196 273.463 36.1579 273.859 36.3352 274.207L37.9081 277.288C38.0016 277.471 38.1998 277.587 38.4152 277.587H38.5741L38.2054 293.81H6.32812V426.582H667.247V293.81H658.318Z" fill="#B6DCFF"/>
</g>
<path d="M605.029 525.268C605.029 526.224 494.37 527 357.865 527C221.36 527 110.699 526.224 110.699 525.268C110.699 524.31 221.36 523.534 357.865 523.534C494.37 523.534 605.029 524.31 605.029 525.268Z" fill="#D3DAF1"/>
<path d="M497.018 464.227C498.381 477.808 496.174 495.097 496.207 501.554C496.24 507.804 497.017 515.321 498.293 519.055C498.685 520.202 484.313 521.913 480.333 522.109C475.56 522.345 470.428 520.625 470.428 520.625C470.428 520.625 478.471 515.859 479.544 505.672C480.616 495.484 478.276 470.554 478.276 470.554L497.018 464.227Z" fill="#E8E5E4"/>
<path d="M497.968 524.504C499.23 524.185 499.037 520.692 498.385 518.644C497.651 516.348 497.173 514.472 497.173 514.472C497.173 514.472 491.963 516.589 487.261 517.702C481.311 519.108 474.719 516.185 474.719 516.185C474.719 516.185 462.949 519.446 459.932 522.701C456.471 526.434 473.574 526.414 479.766 525.445C485.956 524.475 494.315 525.427 497.968 524.504Z" fill="#2E3C9B"/>
<path d="M470.91 186.838C463.647 198.998 452.625 212.731 448.95 217.211C445.277 221.691 442.22 231.388 443.316 235.184C444.412 238.982 455.002 239.475 455.002 239.475L466.584 221.26L473.373 197.314L470.91 186.838Z" fill="white"/>
<path d="M518.583 395.064C513.236 394.627 507.9 394.178 502.573 393.72C489.401 392.587 476.22 390.946 463.027 389.368C463.797 403.226 464.516 416.024 464.951 421.897C465.708 432.117 463.704 492.111 463.704 492.111C474.123 495.592 526.556 495.143 526.556 495.143L518.822 401.412C518.822 401.412 518.747 399.071 518.583 395.064Z" fill="#5369BB"/>
<path d="M481.214 310.097C476.731 305.112 471.985 299.622 466.832 294.332C468.477 278.698 470.602 266.507 470.602 266.507C470.602 266.507 495.49 267.519 504.796 282.655C509.445 290.217 509.663 320.619 508.716 349.154C500.718 335.527 492.094 322.196 481.214 310.097Z" fill="#2A3A99"/>
<path d="M507.048 394.098C505.556 393.972 504.064 393.846 502.574 393.718C497.063 393.244 491.551 392.679 486.037 392.07C485.683 404.611 485.48 416.173 485.904 421.893C486.66 432.115 484.227 494.422 484.227 494.422C490.42 495.16 500.703 494.666 510.855 495.141L505.807 410.48C505.807 410.48 506.356 404.064 507.048 394.098Z" fill="#2E3C9B"/>
<path d="M534.771 470.554C536.045 484.135 531.482 499.416 531.513 505.872C531.543 512.122 533.547 514.653 534.257 517.436C534.554 518.6 520.923 521.913 517.201 522.109C512.736 522.345 507.938 520.625 507.938 520.625C507.938 520.625 515.459 515.859 516.462 505.672C517.465 495.484 515.278 470.554 515.278 470.554H534.771Z" fill="#E8E5E4"/>
<path d="M534.872 524.709C536.088 524.396 535.688 520.401 535.249 518.848C534.672 516.8 532.974 513.91 532.974 513.91C532.974 513.91 529.035 516.756 524.5 517.845C518.761 519.223 512.376 516.26 512.376 516.26C512.376 516.26 502.553 519.462 499.658 522.705C496.337 526.425 511.331 526.494 517.304 525.556C523.279 524.619 531.348 525.614 534.872 524.709Z" fill="#2E3C9B"/>
<path d="M542.694 414.722C542.694 414.722 543.552 407.832 544.762 397.075C530.65 396.068 516.575 394.924 502.574 393.719C501.039 393.587 499.505 393.446 497.969 393.302C499.677 405.9 501.019 417.435 500.896 423.089C500.808 426.976 500.528 438.247 500.218 450.756C499.717 471.272 499.126 495.09 499.126 495.09C509.17 499.326 546.101 499.016 546.101 499.016L544.479 459.006L542.694 414.722Z" fill="#5369BB"/>
<path d="M544.763 397.075C530.651 396.067 516.575 394.924 502.574 393.718C489.401 392.585 476.219 390.944 463.025 389.366C463.795 403.224 464.516 416.024 464.952 421.901C465.145 424.56 465.159 430.628 465.071 438.142C465.454 438.324 465.838 438.516 466.236 438.697C470.085 440.467 474.008 442.131 477.962 443.695C478.419 443.875 480.38 444.598 481.368 444.972C482.135 445.244 482.873 445.489 483.123 445.579C488.742 447.49 494.451 449.207 500.218 450.756C506.914 452.55 513.684 454.113 520.513 455.442C520.837 455.507 521.147 455.559 521.471 455.624C522.091 455.74 522.709 455.869 523.33 455.985V455.959C525.247 456.32 527.179 456.682 529.111 456.993C532.887 457.625 536.884 458.451 540.733 458.71C541.442 458.748 542.076 458.787 542.386 458.825C543.093 458.89 543.787 458.954 544.48 459.006L542.695 414.722C542.695 414.722 543.552 407.832 544.763 397.075Z" fill="#2E3C9B"/>
<path d="M554.61 440.213C546.291 442.869 521.459 444.656 493.16 439.56C492.956 439.524 492.75 439.488 492.545 439.452C488.332 438.68 484.322 437.883 480.606 437.098C466.963 434.201 457.402 431.497 457.402 431.497C457.402 431.497 460.589 377.871 462.871 325.429C464.006 299.184 464.247 276.198 464.09 259.393C463.933 242.601 463.366 231.977 462.871 230.407C461.048 224.613 465.466 209.256 469.547 200.407C469.897 199.647 470.247 198.935 470.585 198.283C474.907 190.025 484.966 160.999 484.966 160.999L491.279 160.521C491.279 160.521 479.459 177.121 501.261 176.263C513.297 175.792 531.107 167.871 531.107 167.871L529.691 173.039C529.691 173.039 537.732 204.573 541.487 226.122C542.536 232.097 543.249 237.313 543.37 240.862C543.563 246.67 545.036 272.637 546.858 303.747C550.166 360.426 554.61 440.213 554.61 440.213Z" fill="white"/>
<path d="M464.057 256.316C469.359 261.191 473.077 262.798 481.178 266.511C486.792 269.083 494.918 268.972 502.894 271.005C515.549 274.231 519.384 289.197 546.102 290.777C545.011 271.762 543.508 244.977 543.37 240.863C543.249 237.314 542.537 232.098 541.487 226.123L505.27 191.499C502.94 189.266 500.272 186.888 497.037 186.839C495.153 186.815 493.355 187.612 491.641 188.409C484.046 191.957 476.658 195.965 469.548 200.408C465.467 209.257 461.049 224.614 462.872 230.408C463.336 231.879 463.864 241.308 464.057 256.316Z" fill="#E8E5E4"/>
<path d="M559.245 250.918C559.136 243.867 558.424 237.01 557.205 231.408C554.223 217.766 544.264 188.346 542.103 173.77C539.941 159.205 530.922 123.781 530.922 123.781L513.834 131.25L513.024 131.6L486.796 151.757C486.033 153.486 480.57 164.89 476.894 170.886C473.358 176.654 457.612 198.959 454.16 210.693C454.16 210.693 461.032 216.727 466.584 235.238C468.912 242.997 481.177 266.509 481.177 266.509C481.177 266.509 491.419 258.728 498.604 249.788C502.187 243.571 510.054 235.034 510.242 234.917C513.782 232.279 517.852 230.588 522.146 230.629C523.22 226.835 540.487 240.792 541.42 245.291C542.51 250.551 543.966 266.529 544.397 271.883C545.187 281.727 545.705 293.459 546.858 300.033C547.993 297.396 553.193 288.657 556.335 277.634C558.496 270.064 559.401 260.31 559.245 250.918Z" fill="#5369BB"/>
<path d="M499.816 229.592C508.179 218.993 518.292 213.209 528.016 209.77C528.016 209.77 511.874 218.765 508.373 231.648L499.816 229.592Z" fill="#2E3C9B"/>
<path d="M550.614 241.498C546.386 234.326 539.793 228.377 531.229 227.422C522.464 226.445 513.352 230.91 506.843 236.524C498.603 243.631 489.978 255.569 477.793 249.123C474.496 247.379 471.803 244.974 469.357 242.299C473.75 252.272 481.176 266.508 481.176 266.508C481.176 266.508 491.418 258.728 498.603 249.788C502.186 243.571 510.053 235.034 510.242 234.917C513.781 232.279 517.851 230.588 522.145 230.629C523.219 226.835 540.486 240.792 541.419 245.291C542.509 250.551 543.966 266.529 544.396 271.883C545.186 281.727 545.704 293.459 546.857 300.033C547.992 297.396 553.193 288.657 556.334 277.633C557.576 273.282 558.391 268.199 558.84 262.887C556.7 255.571 554.471 248.044 550.614 241.498Z" fill="#2E3C9B"/>
<path d="M471.092 189.052C474.11 203.774 483.764 203.945 495.931 195.298C506.237 187.972 520.774 161.996 520.774 161.996C520.774 161.996 502.695 202.865 485.696 207.093C468.699 211.321 471.092 189.052 471.092 189.052Z" fill="#2E3C9B"/>
<path d="M510.103 145.275C508.181 153.84 499.038 167.522 491.989 166.678C486.964 166.075 481.802 155.327 483.829 152.159C485.996 153.514 489.429 156.063 491.947 157.03C492.61 157.282 493.311 157.531 494.031 157.52C494.775 157.519 495.42 157.244 496.029 156.981C499.709 155.35 506.246 145.347 510.103 145.275Z" fill="#2E3C9B"/>
<path d="M489.316 107.691C482.02 108.373 480.557 112.325 480.557 112.325C479.157 114.854 475.589 120.94 475.243 125.335C474.897 129.731 478.598 143.596 481.627 147.172C483.877 149.829 487.337 151.875 487.337 151.875L497.824 125.116L489.316 107.691Z" fill="#2E3C9B"/>
<path d="M484.366 108.741C482.993 112.156 476.59 122.112 476.659 125.863C476.708 128.541 476.895 133.025 476.575 139.56C476.253 146.119 482.469 153.361 483.855 154.768C485.24 156.174 490.751 162.196 496.858 159.583C500.749 157.916 503.823 154.734 506.215 151.846C508.607 148.958 513.289 139.541 514.327 133.486C515.366 127.432 507.763 112.713 507.763 112.713L484.366 108.741Z" fill="#F7AF7A"/>
<path d="M511.785 135.883C511.785 135.883 516.246 119.747 513.442 116.102C508.264 109.376 490.938 107.002 484.489 111.265C482.765 112.406 479.118 116.301 478.441 120.254C483.477 115.057 493.568 113.28 502.189 119.255C508.7 123.769 511.785 135.883 511.785 135.883Z" fill="#F1F6FC"/>
<path d="M477.861 117.382C481.655 112.748 486.761 111.19 488.691 111.103C498.837 110.648 506.476 113.976 510.105 128.651C511.933 136.04 508.605 148.147 508.605 148.147L534.869 150.873C534.869 150.873 532.633 130.613 530.922 123.783C525.511 102.191 509.67 100.139 501.699 100.213C494.273 100.282 487.305 103.72 483.146 107.825C479.586 111.34 477.861 117.382 477.861 117.382Z" fill="#5369BB"/>
<path d="M460.949 212.703C457.025 217.212 447.44 228.13 444.397 232.365C441.353 236.599 444.275 247.585 448.78 249.874C453.285 252.163 464.32 248.804 468.787 242.701C473.252 236.599 469.332 232.365 470.5 230.419C471.67 228.474 471.959 225.295 471.959 225.295L460.949 212.703Z" fill="white"/>
<path d="M463.007 212.095C461.846 213.504 463.936 224.154 467.834 226.52C471.732 228.886 472.944 224.295 472.295 219.844C471.644 215.394 465.571 208.984 463.007 212.095Z" fill="#C13F3B"/>
<path d="M472.55 177.701C472.325 177.75 472.187 177.813 472.187 177.813C472.187 177.813 472.027 176.205 471.078 174.512L470.955 174.299C469.629 171.769 468.464 172.965 468.464 172.965C468.464 172.965 468.56 172.47 468.008 170.534C467.427 168.522 465.955 167.788 465.384 168.224C464.48 168.928 464.921 171.7 464.921 171.7C464.514 170.625 463.621 170.352 462.96 171.037C462.444 171.57 462.452 176.418 462.654 179.308C462.654 179.308 462.047 179.286 461.49 180.075C460.724 181.158 460.922 184.978 461.174 188.263C461.389 191.178 459.394 195.95 459.927 197.88C460.466 199.791 461.391 201.467 462.445 203.399C462.877 204.202 463.355 206.271 462.899 208.425C462.449 210.541 461.48 211.824 460.949 212.702C460.655 216.974 466.498 226.793 467.835 226.52C468.127 225.715 473.755 211.977 474.518 210.252C476.039 206.821 478.046 205.236 478.565 202.973C479.085 200.71 477.549 191.311 476.993 187.852C476.542 185.183 475.441 181.56 474.823 179.095C474.429 177.494 473.167 177.569 472.55 177.701Z" fill="#E39D75"/>
<path d="M487.415 224.03C486.764 226.586 483.756 226.264 481.885 226.448C480.393 226.595 481.616 221.349 482.284 215.472C482.918 209.889 486.297 206.235 488.036 208.82C489.772 211.403 488.737 218.857 487.415 224.03Z" fill="#C13F3B"/>
<path d="M517.905 227.63C517.416 234.343 517.116 241.066 516.737 247.712C516.726 248.146 516.714 248.569 516.682 248.992C512.908 247.066 508.777 244.762 505.405 242.424C499.494 238.317 490.277 227.753 484.166 221.33C482.039 219.293 477.632 211.645 476.229 210.32C473.412 207.705 470.885 207.025 469.494 205.099C468.092 203.185 465.753 193.712 464.885 190.228C464.229 187.534 463.806 183.671 463.393 181.099C463.127 179.441 464.34 178.995 464.975 178.873C465.209 178.829 465.353 178.829 465.353 178.829C465.353 178.829 464.863 177.248 465.075 175.277L465.097 175.022C465.22 173.497 465.699 172.951 466.143 172.773C466.411 172.662 466.666 172.695 466.8 172.729L466.901 172.762C466.901 172.762 466.811 172.628 466.689 172.172C466.633 171.904 466.578 171.626 466.522 171.349L466.511 171.282L466.434 170.825L466.354 170.29C466.088 168.165 467.179 166.873 467.891 167.051C468.303 167.162 468.648 167.586 468.937 168.098L468.948 168.142C469.45 169.033 469.728 170.135 469.728 170.135C469.705 169.689 469.806 169.323 469.995 169.055C470.262 168.632 470.752 168.487 471.297 168.722C471.999 169.022 473.69 172.963 474.67 175.767C475.404 177.849 476.363 179.34 476.652 180.232L476.73 180.198C476.83 180.165 477.019 180.098 477.243 180.075C477.587 180.008 478.043 180.031 478.455 180.287C479.612 180.988 479.746 181.311 480.826 184.517C481.806 187.344 484.677 190.74 484.956 192.777C485.213 194.792 485.022 196.75 484.811 198.988C484.612 201.236 485.814 205.39 488.195 208.161V208.172C494.852 213.46 505.048 219.804 510.28 222.933C512.062 224.001 515.602 225.571 517.905 227.63Z" fill="#F7AF7A"/>
<path d="M531.254 264.416C528.001 263.977 501.922 251.234 492.948 243.747C490.832 241.977 487.384 235.277 486.428 233.198C484.751 229.571 482.556 227.142 482.014 226.575C482.375 226.846 483.563 226.988 485.925 220.881C488.843 213.354 487.965 208.035 487.965 208.035L496.589 213.161C496.589 213.212 513.774 221.553 514.315 221.811L514.329 221.824C514.329 221.824 518.602 220.016 521.687 219.655C529.435 218.751 545.805 222.895 545.805 237.433C545.805 240.015 546.864 266.508 531.254 264.416Z" fill="white"/>
<path d="M468.196 191.381C468.05 191.167 467.127 189.638 466.603 186.589C466.137 183.873 465.236 180.384 464.973 178.873C465.201 178.829 465.357 178.833 465.357 178.833C465.357 178.833 464.86 177.254 465.071 175.276L465.1 175.026C465.559 176.671 466.497 182.687 467.025 185.595C467.518 188.301 468.12 191.048 468.196 191.381Z" fill="#E38375"/>
<path d="M470.977 189.846C470.977 189.846 469.533 185.814 469.233 184.811C468.788 183.32 466.422 173.686 466.143 172.773C466.41 172.662 466.665 172.695 466.799 172.729C467.367 175.467 470.977 189.846 470.977 189.846Z" fill="#E38375"/>
<path d="M474.436 188.744C474.201 187.898 471.897 180.1 470.974 176.883C470.004 173.487 469.728 170.182 468.947 168.144C469.449 169.034 469.727 170.137 469.727 170.137C469.704 169.691 469.805 169.325 469.994 169.057C470.228 170.359 471.774 176.975 472.12 178.444C473.396 183.88 474.224 187.653 474.436 188.744Z" fill="#E38375"/>
<path d="M480.914 191.945C480.914 191.945 480.168 190.353 479.767 189.095C479.367 187.837 478.176 184.987 477.485 182.816C477.318 182.293 477.051 181.336 476.729 180.201C476.828 180.168 477.018 180.101 477.241 180.078C477.919 182.839 479.333 186.78 480.001 187.893C480.847 189.317 480.914 191.945 480.914 191.945Z" fill="#E38375"/>
<path d="M492.546 439.451C488.332 438.679 484.323 437.881 480.606 437.097C478.71 417.986 473.568 356.357 475.197 331.15C477.19 300.426 478.566 285.082 478.566 285.082C478.566 285.082 480.123 334.988 481.656 366.474C482.875 391.198 489.274 424.469 492.546 439.451Z" fill="#E8E5E4"/>
<path d="M535.129 154.172C534.365 139.773 520.773 118.77 520.773 118.77C520.773 118.77 531.138 128.021 534.365 139.773C536.379 147.106 535.129 154.172 535.129 154.172Z" fill="#2E3C9B"/>
<path d="M523.819 223.827C525.871 227.868 529.033 238.803 529.227 239.475C524.464 230.218 514.328 221.826 514.328 221.826C514.328 221.826 518.602 220.018 521.687 219.657C529.435 218.753 545.804 222.897 545.804 237.434C543.12 225.376 523.819 223.827 523.819 223.827Z" fill="#E8E5E4"/>
<path d="M484.461 146.538C484.556 147.612 485.943 150.477 489.029 150.136C492.05 149.803 493.491 146.562 493.971 145.34C492.765 146.731 486.537 148.478 484.461 146.538Z" fill="#452528"/>
<path d="M487.943 134.146C487.083 136.246 486.42 137.884 485.961 139.151C485.502 140.42 485.244 141.31 485.202 141.963L485.201 142.014C485.2 142.234 485.289 142.434 485.417 142.589C485.645 142.859 485.977 143.03 486.345 143.17C487.446 143.579 488.955 143.663 488.97 143.665C489.13 143.676 489.268 143.553 489.278 143.393C489.288 143.231 489.165 143.093 489.005 143.084C489.004 143.084 488.795 143.07 488.474 143.034C487.994 142.979 487.269 142.868 486.691 142.674C486.402 142.577 486.15 142.459 485.994 142.335C485.833 142.209 485.785 142.11 485.785 142.014V141.997C485.815 141.468 486.056 140.597 486.509 139.349C486.961 138.1 487.623 136.466 488.484 134.367C488.544 134.218 488.473 134.048 488.324 133.987C488.175 133.926 488.005 133.997 487.944 134.146" fill="#F78E7B"/>
<path d="M495.388 133.886C495.327 134.903 494.679 135.691 493.94 135.647C493.201 135.602 492.651 134.743 492.712 133.727C492.772 132.71 493.421 131.922 494.16 131.967C494.899 132.011 495.449 132.871 495.388 133.886Z" fill="#452528"/>
<path d="M478.611 138.933C478.611 138.933 480.093 139.754 482.138 139.477C482.138 139.477 480.004 141.938 478.611 138.933Z" fill="#F6A56A"/>
<path d="M494.572 140.239C494.572 140.239 496.223 140.618 498.113 139.786C498.113 139.786 496.742 142.74 494.572 140.239Z" fill="#F6A56A"/>
<path d="M478.696 126.274C480.241 125.493 482.618 125.168 483.858 125.813C483.858 125.813 483.118 126.985 482.76 127.032C482.101 127.12 480.564 126.907 479.212 127.365C477.986 127.779 476.891 128.729 476.891 128.729C477.088 127.736 477.566 126.845 478.696 126.274Z" fill="#452528"/>
<path d="M497.773 125.341C495.893 124.876 493.033 124.93 491.393 125.372C491.393 125.372 492.339 126.532 492.77 126.573C493.563 126.648 496.151 126.403 497.831 126.676C499.452 126.94 500.682 128.002 500.682 128.002C500.284 126.768 499.003 125.645 497.773 125.341Z" fill="#452528"/>
<path d="M480.333 132.986C480.273 134.003 479.624 134.791 478.884 134.746C478.146 134.702 477.595 133.842 477.657 132.826C477.718 131.81 478.366 131.021 479.105 131.065C479.844 131.11 480.394 131.97 480.333 132.986Z" fill="#452528"/>
<path d="M241.51 168.609C233.801 169.165 227.533 183.857 230.311 196.563C232.1 204.748 239.585 220.114 243.514 228.189C248.336 238.099 253.82 239.949 253.82 239.949C253.82 239.949 275.829 246.195 271.902 226.417C270.406 218.882 264.091 201.538 259.286 193.211C247.55 172.867 241.51 168.609 241.51 168.609Z" fill="#5369BB"/>
<path d="M206.183 127.398C206.183 127.398 200.888 149.026 200.079 150.322C196.943 155.353 196.272 154.851 188.178 161.504C188.178 161.504 215.189 177.469 223.655 178.272C232.12 179.076 230.764 161.813 230.764 161.813C230.764 161.813 225.114 157.898 224.154 155.415C222.728 151.729 221.516 135.501 221.516 135.501L206.183 127.398Z" fill="#F7AF7A"/>
<path d="M222.969 155.379C219.58 154.385 216.253 153.188 213.036 151.73C212.454 151.471 211.881 151.193 211.311 150.912C210.014 150.132 208.739 149.327 207.508 148.445C207.053 148.12 204.708 146.177 204.546 146.159C203.773 145.354 203.028 144.522 202.302 143.677L202.107 143.472C203.904 136.703 206.183 127.396 206.183 127.396L221.516 135.499C221.516 135.499 222.728 151.727 224.154 155.414C224.193 155.515 224.251 155.622 224.306 155.729C223.73 155.581 223.186 155.441 222.969 155.379Z" fill="#F79273"/>
<path d="M231.737 99.2673C236.148 103.015 237.139 109.037 236.27 113.07C235.399 117.1 232.293 126.074 232.293 126.074C232.293 126.074 229.139 112.257 227.012 107.366C224.885 102.475 221.361 96.0352 221.361 96.0352L231.737 99.2673Z" fill="#452528"/>
<path d="M225.616 98.6734C228.422 100.227 233.241 103.525 233.482 106.008C233.723 108.492 234.841 115.76 234.518 120.031C234.195 124.301 234.976 132.63 234.268 137.617C233.56 142.604 227.73 149.932 226.324 150.712C220.291 154.065 213.842 150.35 208.825 146.99C202.986 143.081 198.679 139.442 199.09 128.772C199.09 128.772 196.57 108.451 197.671 105.508C199.631 100.265 208.321 100.556 214.537 100.848C216.801 100.954 218.737 101.06 219.9 100.9C224.255 100.295 225.616 98.6734 225.616 98.6734Z" fill="#F7AF7A"/>
<path d="M204.202 108.029C202.725 110.345 199.805 112.865 200.168 114.995C200.894 119.253 202.512 121.624 202.512 121.624L200.849 125.686C200.849 125.686 201.79 126.716 200.154 131.002C199.265 133.335 186.078 117.295 188.466 105.128C189.995 97.3369 197.567 99.7538 197.567 99.7538C198.82 91.8619 203.175 88.6165 216.006 89.0992C231.866 89.6952 238.236 94.7379 238.236 94.7379C238.165 96.5186 238.06 104.966 226.585 104.771C215.11 104.574 205.712 103.599 205.712 103.599C205.712 103.599 205.678 105.712 204.202 108.029Z" fill="#452528"/>
<path d="M234.483 126.135C234.443 124.382 234.416 122.73 234.454 121.339C235.9 121.413 236.644 121.622 237.008 121.97C237.511 122.451 237.837 123.822 237.238 125.695C236.32 125.84 235.399 125.987 234.483 126.135Z" fill="white"/>
<path d="M234.536 128.525C234.519 127.717 234.5 126.916 234.482 126.132C235.399 125.984 236.32 125.838 237.238 125.693C237.195 125.829 237.146 125.967 237.093 126.109C236.641 127.303 235.944 128.145 234.536 128.525Z" fill="#F3F6FC"/>
<path d="M232.507 128.758C232.379 128.758 232.248 128.756 232.113 128.752C229.27 128.668 228.824 127.858 228.392 126.147C227.96 124.437 228.017 122.657 228.147 122.287C228.5 121.281 228.572 121.408 231.834 121.327C232.29 121.316 232.709 121.31 233.094 121.31C233.606 121.31 234.057 121.32 234.455 121.339C234.417 122.73 234.445 124.382 234.484 126.135C234.501 126.918 234.521 127.72 234.537 128.528C233.981 128.68 233.314 128.758 232.507 128.758Z" fill="#FCCFC2"/>
<path d="M217.852 128.744C217.623 128.744 217.379 128.739 217.119 128.729C214.027 128.608 211.943 128.232 211.506 125.596C211.056 122.874 211.23 121.637 211.792 121.115C212.089 120.839 212.743 120.742 213.786 120.742C214.72 120.742 215.966 120.819 217.548 120.915C220.897 121.118 222.014 121.186 222.361 122.256C222.488 122.649 222.477 124.11 222.007 125.892C221.565 127.566 221.393 128.744 217.852 128.744Z" fill="#FCCFC2"/>
<path d="M198.595 122.027L208.121 121.941L211.112 119.467C211.112 119.467 206.087 119.388 201.467 119.48C199.274 119.525 196.893 120.439 196.893 120.439C196.893 120.439 197.829 120.993 198.595 122.027ZM211.792 121.115C212.355 120.592 214.199 120.712 217.548 120.915C220.899 121.118 222.015 121.186 222.361 122.256C222.489 122.65 222.478 124.11 222.007 125.892C221.537 127.675 221.372 128.896 217.12 128.729C214.028 128.608 211.943 128.232 211.507 125.597C211.056 122.874 211.23 121.637 211.792 121.115ZM228.146 122.287C228.499 121.281 228.571 121.408 231.833 121.327C235.094 121.245 236.468 121.455 237.009 121.97C237.548 122.486 237.883 124.025 237.093 126.111C236.434 127.852 235.257 128.844 232.112 128.753C229.269 128.668 228.824 127.858 228.391 126.147C227.959 124.437 228.017 122.657 228.146 122.287ZM208.121 121.941C208.216 122.387 209.51 122.676 209.732 122.804C210.214 123.081 210.008 124.418 210.708 126.372C211.611 128.896 213.923 129.544 218.654 129.291C222.996 129.058 223.036 125.843 223.625 124.51C224.217 123.178 224.619 123.004 225.287 123.017C225.94 123.03 226.28 123.214 226.851 124.565C227.422 125.918 227.122 129.115 231.481 129.279C234.49 129.392 236.478 128.889 237.296 127.038C238.025 125.388 238.488 123.723 238.651 122.447C238.814 121.158 238.951 120.379 238.186 120.183C237.245 119.945 234.868 119.914 233.561 119.892C230.947 119.847 229.114 119.591 227.562 120.192C226.007 120.792 226.046 121.321 225.3 121.317C224.536 121.311 224.524 120.766 222.981 120.112C221.436 119.46 217.017 119.438 214.404 119.393C211.791 119.349 208.138 119.569 208.035 120.374C207.981 120.806 208.007 121.422 208.121 121.941Z" fill="#1D364D"/>
<path d="M202.363 127.138C202.363 127.138 201.125 123.663 198.842 121.428C196.915 119.543 194 119.481 193.231 122.444C192.294 126.053 195.603 128.38 195.774 130.502C195.966 132.884 197.784 134.997 199.501 135.453L202.363 127.138Z" fill="#F7AF7A"/>
<path d="M199.953 130.246C198.538 130.246 197.702 128.341 197.637 126.734C197.597 125.761 196.748 124.441 195.953 124.441C195.777 124.441 195.603 124.507 195.443 124.654C194.897 125.154 194.54 125.626 194.4 125.626C194.311 125.626 194.308 125.44 194.397 124.955C194.572 124.004 195.218 123.118 196.131 123.118C196.422 123.118 196.74 123.209 197.076 123.414C198.28 124.149 198.992 124.817 199.662 126.44C199.973 127.194 200.029 127.237 200.044 127.237C200.045 127.237 200.046 127.237 200.046 127.236C200.047 127.236 200.047 127.236 200.048 127.236C200.055 127.236 200.047 127.282 200.251 128.087C200.679 129.778 201.498 130.17 200.034 130.244C200.007 130.245 199.98 130.246 199.953 130.246Z" fill="#F1917E"/>
<path d="M233.489 520.35C229.208 518.815 224.62 514.466 224.62 514.466L224.314 494.51L238.995 495.79C238.995 495.79 238.382 511.139 238.995 514.209C239.606 517.279 233.489 520.35 233.489 520.35Z" fill="#424EA9"/>
<path d="M241.414 513.955C238.852 512.64 236.471 513.187 233.271 514.978C230.073 516.768 224.257 514.467 224.257 514.467C224.257 514.467 223.094 515.49 222.512 519.071C221.93 522.653 221.64 524.699 222.221 525.979C222.803 527.257 255.545 525.979 258.453 525.979C261.361 525.979 260.488 523.421 255.835 521.63C251.183 519.838 244.904 515.745 241.414 513.955Z" fill="#1D364D"/>
<path d="M201.094 331.502C201.094 331.502 210.378 386.019 211.723 397.593C213.067 409.167 220.292 505.923 220.292 505.923C220.292 505.923 241.058 506.32 241.058 505.923C241.058 505.527 250.367 401.124 250.675 372.392C250.982 343.659 245.293 318.843 248.147 315.012C251 311.181 242.517 282.575 242.517 282.575L219.026 286.985L201.094 331.502Z" fill="#1D364D"/>
<path d="M217.519 290.722C218.059 304.076 218.198 317.44 218.12 330.808C215.842 364.936 223.688 393.008 224.217 427.208C224.528 447.31 228.195 499.564 228.721 506.078C223.469 506.034 220.292 505.92 220.292 505.92C220.292 505.92 213.067 409.163 211.723 397.589C210.378 386.016 201.094 331.499 201.094 331.499L217.519 290.722Z" fill="#192B3B"/>
<path d="M187.698 520.35C183.247 518.815 178.48 514.466 178.48 514.466L178.162 494.51L193.419 495.79C193.419 495.79 192.784 511.139 193.419 514.209C194.055 517.279 187.698 520.35 187.698 520.35Z" fill="#424EA9"/>
<path d="M196.296 513.955C193.635 512.64 191.158 513.187 187.834 514.978C184.51 516.768 178.464 514.467 178.464 514.467C178.464 514.467 177.256 515.49 176.652 519.071C176.046 522.653 175.745 524.699 176.349 525.979C176.953 527.257 206.715 525.979 209.737 525.979C212.76 525.979 211.853 523.421 207.017 521.63C202.181 519.838 199.924 515.745 196.296 513.955Z" fill="#1D364D"/>
<path d="M170.321 278.886C170.321 278.886 167.345 325.863 169.484 364.579C171.622 403.296 175.226 505.979 175.226 505.979H197.598C197.598 505.979 211.257 404.831 216.342 379.559C221.426 354.287 228.722 282.182 228.722 282.182L170.321 278.886Z" fill="#1D364D"/>
<path d="M250.672 372.729C250.672 372.724 250.672 372.717 250.672 372.713C250.672 372.719 250.672 372.723 250.672 372.729ZM250.672 372.685C250.673 372.659 250.673 372.63 250.673 372.603C250.673 372.631 250.673 372.657 250.672 372.685Z" fill="#887CBA"/>
<path d="M225.19 451.166C224.686 441.728 224.309 433.093 224.217 427.209C223.876 405.162 220.495 385.66 218.744 365.442C222.769 338.792 227.21 296.793 228.409 285.222L242.518 282.574C242.518 282.574 248.739 303.556 248.733 311.987C248.732 313.4 248.556 314.461 248.147 315.011C247.573 315.782 247.344 317.401 247.343 319.731C247.34 328.678 250.688 348.1 250.687 370.127C250.687 370.878 250.683 371.633 250.675 372.39C250.674 372.46 250.673 372.531 250.672 372.602C250.672 372.629 250.672 372.658 250.671 372.685C250.671 372.694 250.671 372.703 250.671 372.712C250.671 372.716 250.671 372.724 250.671 372.728C250.487 387.07 248.152 419.239 245.827 448.31C245.252 448.395 244.677 448.49 244.101 448.574C237.805 449.502 231.501 450.361 225.19 451.166Z" fill="#1B2C3B"/>
<path d="M216.705 452.217C215.014 432.901 213.286 413.471 212.32 403.44C213.892 393.237 215.297 384.752 216.342 379.559C217.104 375.771 217.915 370.933 218.744 365.441C220.495 385.659 223.877 405.161 224.217 427.208C224.309 433.092 224.687 441.727 225.19 451.165C222.364 451.526 219.535 451.876 216.705 452.217Z" fill="#17242E"/>
<path d="M173.401 456.713C173.331 454.869 173.262 453 173.189 451.117C173.2 451.12 173.198 451.12 173.207 451.123C173.279 453.005 173.35 454.873 173.42 456.712C173.414 456.712 173.408 456.713 173.401 456.713Z" fill="#FBC7CC"/>
<path d="M204.873 453.588C207.3 436.517 209.974 418.174 212.287 403.395C212.292 403.45 212.297 403.508 212.301 403.564C210.04 418.249 207.433 436.473 205.051 453.567C204.992 453.575 204.932 453.581 204.873 453.588ZM173.208 451.124C173.199 451.121 173.201 451.121 173.191 451.117C172.009 420.054 170.569 384.337 169.506 364.964C170.589 384.688 172.039 420.517 173.208 451.124Z" fill="#887CBA"/>
<path d="M212.302 403.562C212.297 403.506 212.292 403.448 212.287 403.393C212.293 403.353 212.298 403.315 212.305 403.276C212.31 403.331 212.316 403.385 212.321 403.44C212.315 403.481 212.309 403.521 212.302 403.562Z" fill="#17242E"/>
<path d="M173.42 456.711C173.35 454.872 173.279 453.004 173.207 451.122C172.038 420.515 170.587 384.686 169.505 364.962C169.497 364.834 169.491 364.707 169.484 364.579C168.919 354.352 168.711 343.549 168.711 333.187C168.71 304.322 170.321 278.886 170.321 278.886L228.721 282.182C228.721 282.182 228.611 283.268 228.408 285.221L219.026 286.982L201.094 331.5C201.094 331.5 210.378 386.016 211.723 397.59C211.854 398.721 212.052 400.674 212.303 403.276C212.297 403.315 212.292 403.353 212.286 403.392C209.973 418.172 207.299 436.515 204.871 453.586C194.4 454.744 183.914 455.775 173.42 456.711Z" fill="#1B2C3B"/>
<path d="M212.319 403.441C212.314 403.387 212.308 403.332 212.303 403.278C213.884 393.184 215.294 384.765 216.341 379.561C215.296 384.754 213.891 393.239 212.319 403.441Z" fill="#171E24"/>
<path d="M212.303 403.277C212.052 400.675 211.854 398.723 211.723 397.591C210.378 386.017 201.094 331.501 201.094 331.501L219.026 286.983L228.408 285.222C227.21 296.793 222.768 338.792 218.744 365.442C217.914 370.935 217.103 375.773 216.341 379.56C215.294 384.765 213.884 393.184 212.303 403.277Z" fill="#19242E"/>
<path d="M260.717 438.902C260.717 438.902 249.006 443.191 230.125 443.913C227.14 444.029 223.97 444.06 220.635 443.967C191.629 443.154 173.196 446.575 163.851 444.97C163.436 444.899 163.045 444.813 162.678 444.727C162.678 444.727 163.857 319.147 165.185 302.87C165.555 298.326 163.745 264.927 166.069 235.616C167.534 217.582 160.251 187.693 166.922 174.311C170.066 168.001 192.379 157.125 192.379 157.125C192.379 157.125 206.543 170.437 219.708 171.152C231.978 171.824 229.316 158.834 229.316 158.834L241.804 170.96C241.804 170.96 245.479 188.362 246.733 207.888C247.338 217.283 249.268 235.807 249.072 254.876C250.304 270.373 250.157 297.195 253.836 330.965C259.516 383.046 260.717 438.902 260.717 438.902Z" fill="#424EA9"/>
<mask id="mask1_683_15278" style="mask-type:luminance" maskUnits="userSpaceOnUse" x="192" y="152" width="31" height="20">
<path d="M192.375 157.122C192.375 157.122 198.861 164.179 208.022 168.658C216.18 172.646 222.51 171.933 222.51 171.933L220.801 165.016C220.801 165.016 215.102 164.41 207.442 160.279C199.809 156.162 195.323 152.029 195.323 152.029L192.375 157.122Z" fill="white"/>
</mask>
<g mask="url(#mask1_683_15278)">
<path d="M192.375 157.122C192.375 157.122 198.861 164.179 208.022 168.658C216.18 172.646 222.51 171.933 222.51 171.933L220.801 165.016C220.801 165.016 215.102 164.41 207.442 160.279C199.809 156.162 195.323 152.029 195.323 152.029L192.375 157.122Z" fill="url(#paint0_linear_683_15278)"/>
</g>
<mask id="mask2_683_15278" style="mask-type:luminance" maskUnits="userSpaceOnUse" x="222" y="156" width="10" height="16">
<path d="M222.51 171.938L223.498 164.456C223.498 164.456 226.859 159.786 227.023 156.431L231.141 159.369C231.141 159.369 232.601 162.959 227.367 168.705C224.847 171.471 222.51 171.938 222.51 171.938Z" fill="white"/>
</mask>
<g mask="url(#mask2_683_15278)">
<path d="M222.51 171.938L223.498 164.456C223.498 164.456 226.859 159.786 227.023 156.431L231.141 159.369C231.141 159.369 232.601 162.959 227.367 168.705C224.847 171.471 222.51 171.938 222.51 171.938Z" fill="url(#paint1_linear_683_15278)"/>
</g>
<path d="M221.998 171.983L225.384 207.834L221.205 208.895L221.458 209.893L226.492 208.614L223.023 171.887L221.998 171.983Z" fill="#5369BB"/>
<path d="M220.123 180.26C220.173 181.114 219.521 181.848 218.666 181.9C217.811 181.95 217.077 181.298 217.026 180.443C216.975 179.588 217.627 178.854 218.483 178.803C219.337 178.752 220.072 179.405 220.123 180.26Z" fill="#5369BB"/>
<path d="M221.255 199.376C221.306 200.231 220.654 200.965 219.799 201.017C218.943 201.067 218.209 200.416 218.159 199.56C218.109 198.705 218.76 197.971 219.615 197.92C220.47 197.869 221.205 198.522 221.255 199.376Z" fill="#5369BB"/>
<path d="M163.852 444.968C165.063 445.177 166.436 445.298 167.958 445.357C166.391 444.861 165 444.69 163.852 444.968Z" fill="#2E3C9B"/>
<path d="M228.869 432.9C227.906 377.199 226.934 321.51 225.972 265.82C225.154 312.05 224.366 373.253 219.211 419.15C218.671 423.983 217.377 434.083 215.711 443.869C217.32 443.889 218.955 443.919 220.635 443.965C223.969 444.058 227.14 444.027 230.125 443.911C229.025 440.429 228.932 436.599 228.869 432.9Z" fill="#2E3C9B"/>
<path d="M228.742 137.008C228.8 137.922 227.755 141.663 224.38 140.815C222.469 140.336 221.596 137.783 221.48 136.851C222.536 138.446 227.963 139.082 228.742 137.008Z" fill="#452528"/>
<path d="M226.471 125.633C227.342 127.758 228.011 129.412 228.469 130.677C228.928 131.94 229.172 132.822 229.203 133.359V133.376L229.118 133.584C229.009 133.722 228.752 133.877 228.426 133.997C227.938 134.18 227.309 134.3 226.81 134.369C226.56 134.405 226.341 134.428 226.185 134.442C226.03 134.457 225.94 134.462 225.94 134.462C225.78 134.471 225.657 134.61 225.667 134.771C225.676 134.931 225.815 135.054 225.975 135.044C225.984 135.043 226.877 134.991 227.79 134.786C228.248 134.683 228.71 134.544 229.084 134.338C229.271 134.234 229.438 134.113 229.569 133.955C229.698 133.8 229.788 133.597 229.787 133.376L229.786 133.324C229.744 132.665 229.482 131.763 229.019 130.478C228.554 129.196 227.883 127.538 227.011 125.412C226.95 125.263 226.779 125.192 226.63 125.253C226.481 125.314 226.41 125.485 226.471 125.633Z" fill="#F78E7B"/>
<path d="M218.028 124.443C218.089 125.449 218.73 126.227 219.461 126.184C220.191 126.14 220.735 125.289 220.674 124.285C220.615 123.28 219.973 122.501 219.243 122.545C218.512 122.589 217.968 123.439 218.028 124.443Z" fill="#452528"/>
<path d="M234.731 132.001C234.731 132.001 233.23 132.832 231.16 132.552C231.16 132.552 233.32 135.042 234.731 132.001Z" fill="#F6A56A"/>
<path d="M220.798 133.323C220.798 133.323 219.125 133.707 217.213 132.866C217.213 132.866 218.601 135.857 220.798 133.323Z" fill="#F6A56A"/>
<path d="M234.353 116.633C232.789 115.843 230.382 115.514 229.127 116.168C229.127 116.168 229.877 117.354 230.239 117.401C230.906 117.49 232.461 117.275 233.831 117.738C235.072 118.159 236.181 119.119 236.181 119.119C235.98 118.115 235.497 117.212 234.353 116.633Z" fill="#452528"/>
<path d="M216.152 115.693C218.056 115.223 220.951 115.277 222.612 115.724C222.612 115.724 221.654 116.898 221.218 116.939C220.414 117.017 217.794 116.77 216.093 117.046C214.453 117.311 213.207 118.387 213.207 118.387C213.61 117.138 214.906 116.001 216.152 115.693Z" fill="#452528"/>
<path d="M231.878 124.823C231.938 125.828 232.58 126.607 233.31 126.563C234.041 126.519 234.585 125.669 234.524 124.665C234.464 123.66 233.823 122.881 233.092 122.924C232.361 122.968 231.818 123.818 231.878 124.823Z" fill="#452528"/>
<path d="M237.986 198.355C239.148 199.764 259.239 221.006 241.225 218.868C234.419 218.061 232.774 210.401 233.424 205.951C234.107 201.276 236.391 196.421 237.986 198.355Z" fill="#2E3C9B"/>
<path d="M214.337 209.981C214.916 212.191 216.652 219.464 218.124 219.674C219.298 219.84 218.761 208.672 217.716 203.676C216.518 197.948 214.242 196.223 213.437 196.911C211.52 198.555 213.16 205.504 214.337 209.981Z" fill="#2E3C9B"/>
<path d="M230.455 165.284C230.679 165.333 230.816 165.395 230.816 165.395C230.816 165.395 230.977 163.788 231.927 162.095L232.049 161.881C233.375 159.352 234.54 160.548 234.54 160.548C234.54 160.548 234.444 160.053 234.997 158.117C235.578 156.104 237.05 155.37 237.62 155.806C238.525 156.51 238.084 159.282 238.084 159.282C238.49 158.208 239.383 157.936 240.044 158.62C240.561 159.153 240.552 164.001 240.351 166.892C240.351 166.892 240.956 166.869 241.513 167.658C242.281 168.741 242.083 172.56 241.829 175.846C241.615 178.761 243.61 183.533 243.077 185.463C242.538 187.374 241.614 189.05 240.56 190.982C240.129 191.785 243.881 197.464 244.412 198.343C249.015 204.744 245.758 217.638 244.422 217.365C244.13 216.56 230.781 200.213 230.018 198.488C228.497 195.056 226.795 192.925 226.275 190.662C225.755 188.399 225.455 178.894 226.011 175.435C226.462 172.766 227.564 169.142 228.181 166.678C228.575 165.077 229.838 165.152 230.455 165.284Z" fill="#E39D75"/>
<path d="M185.098 215.213C185.588 221.926 185.888 228.648 186.267 235.295C186.278 235.729 186.289 236.151 186.323 236.574C190.096 234.648 194.226 232.345 197.599 230.007C203.509 225.899 207.548 220.885 213.66 214.462C215.786 212.425 225.372 199.228 226.774 197.903C229.592 195.288 232.118 194.608 233.509 192.682C234.912 190.768 237.25 181.295 238.118 177.811C238.775 175.116 239.198 171.254 239.61 168.682C239.877 167.024 238.663 166.579 238.029 166.456C237.795 166.412 237.65 166.412 237.65 166.412C237.65 166.412 238.14 164.831 237.929 162.861L237.907 162.604C237.784 161.08 237.305 160.534 236.86 160.356C236.593 160.245 236.337 160.278 236.204 160.312L236.103 160.345C236.103 160.345 236.193 160.211 236.315 159.755C236.371 159.487 236.426 159.21 236.482 158.931L236.493 158.864L236.57 158.408L236.649 157.873C236.916 155.748 235.825 154.456 235.113 154.634C234.701 154.745 234.355 155.168 234.066 155.681L234.055 155.725C233.554 156.616 233.276 157.718 233.276 157.718C233.298 157.272 233.198 156.905 233.009 156.638C232.741 156.215 232.251 156.07 231.706 156.304C231.005 156.604 229.313 160.546 228.334 163.351C227.599 165.432 226.642 166.923 226.352 167.814L226.274 167.781C226.173 167.747 225.985 167.681 225.762 167.658C225.417 167.591 224.961 167.614 224.549 167.869C223.391 168.571 223.257 168.895 222.177 172.1C221.197 174.927 218.326 178.322 218.048 180.359C217.791 182.375 217.981 184.333 218.193 186.571C218.392 188.819 217.19 192.972 214.808 195.744V195.755C208.152 201.042 197.955 207.387 192.723 210.516C190.942 211.584 187.402 213.154 185.098 215.213Z" fill="#F7AF7A"/>
<path d="M234.809 178.963C234.953 178.749 235.876 177.22 236.402 174.171C236.866 171.454 237.768 167.965 238.032 166.455C237.802 166.411 237.648 166.414 237.648 166.414C237.648 166.414 238.143 164.836 237.933 162.858L237.904 162.608C237.444 164.253 236.506 170.269 235.979 173.177C235.485 175.883 234.883 178.629 234.809 178.963Z" fill="#E38375"/>
<path d="M232.027 177.428C232.027 177.428 233.47 173.396 233.771 172.393C234.217 170.902 236.583 161.267 236.861 160.355C236.594 160.244 236.338 160.277 236.205 160.311C235.637 163.049 232.027 177.428 232.027 177.428Z" fill="#E38375"/>
<path d="M228.568 176.324C228.802 175.478 231.106 167.681 232.03 164.463C232.999 161.068 233.277 157.762 234.056 155.725C233.554 156.616 233.277 157.718 233.277 157.718C233.299 157.272 233.199 156.905 233.01 156.638C232.776 157.94 231.229 164.556 230.884 166.025C229.607 171.46 228.779 175.234 228.568 176.324Z" fill="#E38375"/>
<path d="M222.09 179.523C222.09 179.523 222.835 177.932 223.236 176.674C223.637 175.415 224.828 172.566 225.518 170.395C225.685 169.872 225.952 168.915 226.275 167.78C226.174 167.746 225.986 167.68 225.764 167.657C225.084 170.418 223.67 174.358 223.002 175.472C222.157 176.897 222.09 179.523 222.09 179.523Z" fill="#E38375"/>
<path d="M166.921 174.311C173.769 174.311 183.506 185.394 181.86 199.468C180.799 208.532 175.165 225.875 172.208 234.989C168.577 246.174 163.85 248.622 163.85 248.622C163.85 248.622 144.802 257.161 147.013 235.287C147.856 226.954 152.331 207.546 156.046 198.088C165.121 174.984 166.921 174.311 166.921 174.311Z" fill="#5369BB"/>
<path d="M149.318 247.418C154.643 254.396 176.634 249.26 189.289 242.112C208.649 231.178 218.199 219.914 218.573 219.522C216.823 218.061 214.066 206.565 213.458 204.148C212.45 200.145 213.437 196.913 213.437 196.913C213.437 196.913 173.475 217.108 172.932 217.366C172.919 217.379 158.658 221.787 157.729 224.751C155.42 232.118 146.69 243.973 149.318 247.418Z" fill="#5369BB"/>
<path d="M257.797 239.135C259.124 236.573 260.282 233.925 261.179 231.174C263.706 223.418 264.202 214.529 261.011 206.904C252.693 202.285 244.571 197.746 242.699 195.597C242.699 195.597 246.725 200.784 245.15 206.748C241.734 219.676 234.926 214.479 234.926 214.479C236.094 216.425 237.713 220.094 248.006 229.614C250.544 231.963 254.108 235.627 257.797 239.135Z" fill="#5369BB"/>
<path d="M228.566 165.774C228.689 165.807 228.777 165.863 228.823 165.896C228.767 165.885 228.666 165.841 228.566 165.774Z" fill="#E38375"/>
<path d="M178.378 214.06C178.354 214.067 173.912 215.129 168.73 217.715C163.553 220.302 157.609 224.41 154.656 230.593L155.586 231.035C158.367 225.185 164.113 221.166 169.189 218.636C171.726 217.37 174.089 216.474 175.815 215.897C176.678 215.608 177.382 215.399 177.868 215.262C178.111 215.193 178.3 215.142 178.428 215.109C178.554 215.076 178.617 215.062 178.617 215.061L178.378 214.06Z" fill="#424EA9"/>
<path d="M242.361 195.988C242.361 195.989 245.957 199.098 250.114 202.614C254.275 206.132 258.983 210.047 261.256 211.692C263.348 213.191 265.301 216.544 266.664 219.507C267.349 220.988 267.899 222.372 268.275 223.384C268.463 223.891 268.608 224.305 268.706 224.59C268.804 224.876 268.853 225.03 268.853 225.031L269.834 224.718C269.83 224.705 268.998 222.101 267.599 219.074C266.188 216.047 264.248 212.6 261.859 210.857C259.65 209.261 254.928 205.338 250.779 201.828C248.703 200.072 246.767 198.417 245.349 197.201C243.932 195.986 243.037 195.211 243.035 195.209L242.361 195.988Z" fill="#424EA9"/>
<defs>
<linearGradient id="paint0_linear_683_15278" x1="192.175" y1="161.236" x2="222.955" y2="162.727" gradientUnits="userSpaceOnUse">
<stop stop-color="#EFF1F0"/>
<stop offset="1" stop-color="#DCDBDC"/>
</linearGradient>
<linearGradient id="paint1_linear_683_15278" x1="222.89" y1="164.093" x2="231.151" y2="164.493" gradientUnits="userSpaceOnUse">
<stop stop-color="#EFF1F0"/>
<stop offset="1" stop-color="#DCDBDC"/>
</linearGradient>
</defs>
</svg>
