<svg width="150" height="150" viewBox="0 0 150 150" fill="none" xmlns="http://www.w3.org/2000/svg">
<circle cx="75" cy="75" r="75" fill="#D9D9D9"/>
<path d="M114.5 17H36.5C31.3283 17 26.3684 19.0545 22.7114 22.7114C19.0545 26.3684 17 31.3283 17 36.5V114.5C17 119.672 19.0545 124.632 22.7114 128.289C26.3684 131.946 31.3283 134 36.5 134H114.5C119.672 134 124.632 131.946 128.289 128.289C131.946 124.632 134 119.672 134 114.5V36.5C134 31.3283 131.946 26.3684 128.289 22.7114C124.632 19.0545 119.672 17 114.5 17ZM49.5 43C51.4284 43 53.3134 43.5718 54.9168 44.6432C56.5202 45.7145 57.7699 47.2373 58.5078 49.0188C59.2458 50.8004 59.4389 52.7608 59.0627 54.6521C58.6865 56.5434 57.7579 58.2807 56.3943 59.6443C55.0307 61.0079 53.2934 61.9365 51.4021 62.3127C49.5108 62.6889 47.5504 62.4958 45.7688 61.7578C43.9873 61.0199 42.4645 59.7702 41.3932 58.1668C40.3218 56.5634 39.75 54.6784 39.75 52.75C39.75 50.1641 40.7772 47.6842 42.6057 45.8557C44.4342 44.0272 46.9141 43 49.5 43ZM121 113.395C121.144 115.265 120.54 117.115 119.322 118.541C118.103 119.966 116.369 120.851 114.5 121H36.5L85.705 76.67C86.5312 75.9164 87.6092 75.4986 88.7275 75.4986C89.8458 75.4986 90.9238 75.9164 91.75 76.67L121 105.79V113.395Z" fill="#D9D9D9"/>
<circle cx="41.5" cy="41.5" r="9.5" fill="white"/>
<path d="M83.7809 77.4648C84.9086 76.6104 86.4799 76.66 87.5514 77.5838L123.959 108.971C124.62 109.54 125 110.37 125 111.243V119C125 120.657 123.657 122 122 122H33.9274C31.0518 122 29.8236 118.345 32.1157 116.609L83.7809 77.4648Z" fill="white"/>
</svg>
