<svg width="16" height="18" viewBox="0 0 16 18" fill="none" xmlns="http://www.w3.org/2000/svg">
<path d="M14.4622 8.16602C14.7786 8.16602 15.0401 8.40118 15.0816 8.70618L15.0872 8.79102V14.6251C15.0872 16.0693 13.9569 17.2494 12.5326 17.3291L12.3789 17.3334H3.21224C1.76804 17.3334 0.587864 16.203 0.508189 14.7788L0.503906 14.6251V8.79102C0.503906 8.44585 0.783723 8.16602 1.12891 8.16602C1.44531 8.16602 1.70681 8.40118 1.7482 8.70618L1.75391 8.79102V14.6251C1.75391 15.3902 2.34316 16.0178 3.09263 16.0786L3.21224 16.0834H12.3789C13.1441 16.0834 13.7716 15.4942 13.8324 14.7447L13.8372 14.6251V8.79102C13.8372 8.44585 14.1171 8.16602 14.4622 8.16602ZM3.1834 5.01293L7.3469 0.849091C7.56873 0.627316 7.91565 0.607016 8.1604 0.788282L8.23048 0.848707L12.4011 5.01256C12.6455 5.25643 12.6458 5.65216 12.4019 5.89644C12.1802 6.11851 11.833 6.13897 11.5881 5.95762L11.518 5.89717L8.41556 2.80018L8.41631 12.5451C8.41631 12.8615 8.18115 13.123 7.87615 13.1644L7.79131 13.1701C7.4749 13.1701 7.2134 12.935 7.17198 12.6299L7.16631 12.5451L7.16556 2.79768L4.06731 5.89678C3.84544 6.11868 3.49821 6.13887 3.25353 5.95733L3.18343 5.89682C2.96154 5.67494 2.94135 5.32772 3.12289 5.08303L3.1834 5.01293Z" fill="#252727" fill-opacity="0.78"/>
</svg>
