<svg width="36" height="36" viewBox="0 0 36 36" fill="none" xmlns="http://www.w3.org/2000/svg">
<path d="M19.1727 8.80193L17.9972 9.98001L16.818 8.80087C13.8116 5.79439 8.93711 5.79439 5.93064 8.80087C2.92416 11.8073 2.92416 16.6818 5.93064 19.6883L17.2391 30.9967C17.6586 31.4162 18.3388 31.4162 18.7583 30.9967L30.0754 19.6862C33.0752 16.6698 33.0804 11.809 30.0734 8.80193C27.0615 5.78998 22.1846 5.78998 19.1727 8.80193ZM28.552 18.1712L17.9986 28.7181L7.44982 18.1691C5.28234 16.0016 5.28234 12.4875 7.44982 10.32C9.61727 8.15257 13.1314 8.15257 15.2989 10.32L17.2431 12.2643C17.6698 12.6909 18.364 12.6826 18.7802 12.2459L20.6919 10.3211C22.8648 8.14818 26.3813 8.14818 28.5542 10.3211C30.7222 12.4891 30.7185 15.9929 28.552 18.1712Z" fill="#404040"/>
</svg>
