<svg width="36" height="36" viewBox="0 0 36 36" fill="none" xmlns="http://www.w3.org/2000/svg">
<path d="M29.1081 16.5664C29.6519 16.5664 30.1014 16.9706 30.1725 17.4948L30.1823 17.6406V27.668C30.1823 30.1501 28.2395 32.1785 25.7914 32.3155L25.5273 32.3229H9.77214C7.28992 32.3229 5.26149 30.38 5.12455 27.9321L5.11719 27.668V17.6406C5.11719 17.0474 5.59812 16.5664 6.19141 16.5664C6.73523 16.5664 7.18469 16.9706 7.25581 17.4948L7.26562 17.6406V27.668C7.26562 28.9829 8.27841 30.0616 9.56656 30.1662L9.77214 30.1745H25.5273C26.8425 30.1745 27.921 29.1617 28.0255 27.8735L28.0338 27.668V17.6406C28.0338 17.0474 28.5148 16.5664 29.1081 16.5664ZM9.72256 11.147L16.8786 3.99044C17.2599 3.60927 17.8561 3.57437 18.2768 3.88593L18.3972 3.98978L25.5656 11.1464C25.9855 11.5656 25.9861 12.2457 25.5669 12.6656C25.1859 13.0473 24.589 13.0824 24.1682 12.7707L24.0476 12.6668L18.7154 7.34388L18.7166 24.093C18.7166 24.6368 18.3124 25.0863 17.7882 25.1574L17.6424 25.1672C17.0986 25.1672 16.6491 24.7631 16.5779 24.2388L16.5682 24.093L16.5669 7.33958L11.2418 12.6662C10.8604 13.0476 10.2637 13.0822 9.84311 12.7702L9.72262 12.6662C9.34124 12.2849 9.30654 11.6881 9.61856 11.2675L9.72256 11.147Z" fill="#404040"/>
</svg>
