<svg width="155" height="129" viewBox="0 0 155 129" fill="none" xmlns="http://www.w3.org/2000/svg">
<g id="g8" opacity="0.15">
<g id="g10">
<g id="g14">
<g id="Clip path group">
<mask id="mask0_683_21138" style="mask-type:luminance" maskUnits="userSpaceOnUse" x="0" y="0" width="155" height="100">
<g id="clipPath20">
<path id="path18" d="M0.348542 54.8334C1.52415 63.9475 5.64896 72.7361 12.3424 79.7966C26.0717 94.2789 49.2229 100.72 71.3039 99.4256C106.198 97.3803 153.542 74.8233 154.964 41.1818C156.486 5.19974 109.98 0.556374 78.2309 0.0272738C46.6418 -0.499225 11.7951 6.61125 2.01405 36.6734C0.0867046 42.597 -0.431455 48.7869 0.348542 54.8334Z" fill="white"/>
</g>
</mask>
<g mask="url(#mask0_683_21138)">
<g id="g16">
<path id="path22" d="M-1.11719 102.502H168.061V-0.343752H-1.11719V102.502Z" fill="#F3FAFC"/>
<path id="path24" d="M156.024 71.3636C156.024 71.3636 153.924 69.7868 153.7 69.9837L153.633 67.4231H153.677C153.729 67.4231 153.776 67.3949 153.798 67.3503L154.17 66.6021C154.213 66.5175 154.15 66.4213 154.054 66.4213H153.607L153.412 49.5767H153.533C153.58 49.5767 153.624 49.5488 153.644 49.5048L153.985 48.7665C154.023 48.6832 153.966 48.5879 153.878 48.5879H153.42C153.501 48.3052 153.519 47.9528 153.364 47.5677C153.185 47.1245 152.971 46.7856 152.625 46.4547C152.379 46.2183 152.183 46.1091 152.06 46.0586L152.054 45.8684C152.131 45.8171 152.183 45.7268 152.183 45.6233C152.183 45.5124 152.124 45.4168 152.038 45.3677L151.91 44.4152L151.783 45.3674C151.696 45.4162 151.637 45.5121 151.637 45.6233C151.638 45.7274 151.69 45.8177 151.767 45.8687L151.761 46.0671C151.643 46.1207 151.461 46.2313 151.21 46.4609C150.86 46.782 150.654 47.1377 150.478 47.5829C150.327 47.9621 150.343 48.3086 150.421 48.5879H149.988C149.899 48.5879 149.842 48.6832 149.88 48.7665L150.222 49.5048C150.242 49.5488 150.285 49.5767 150.332 49.5767H150.449L150.266 66.4213H149.811C149.715 66.4213 149.653 66.5175 149.695 66.6021L150.067 67.3503C150.09 67.3949 150.137 67.4231 150.188 67.4231H150.225L150.219 68.1829C149.947 67.9307 149.369 67.5769 149.369 67.5769C148.378 66.7957 147.442 66.0548 147.32 65.411C147.479 65.3548 147.594 65.196 147.594 65.007C147.594 64.81 147.469 64.6453 147.3 64.5962L147.182 63.0947L147.065 64.5962C146.895 64.6453 146.77 64.81 146.77 65.007C146.77 65.196 146.885 65.3548 147.044 65.411C146.922 66.0582 145.976 66.8038 144.978 67.5899C144.559 67.9208 144.12 68.2692 143.703 68.6357L143.577 63.8674H143.66C143.756 63.8674 143.843 63.8141 143.884 63.7315L144.578 62.3386C144.657 62.1812 144.541 62.0012 144.361 62.0012H143.53L143.165 30.6346H143.392C143.479 30.6346 143.56 30.5821 143.598 30.5003L144.232 29.1255C144.304 28.9703 144.198 28.7928 144.033 28.7928H143.181C143.332 28.2664 143.365 27.6102 143.075 26.893C142.743 26.0678 142.345 25.4366 141.701 24.8202C141.242 24.3803 140.877 24.1769 140.649 24.083L140.637 23.7283C140.781 23.6333 140.877 23.4654 140.877 23.2721C140.878 23.0656 140.768 22.8879 140.608 22.7965L140.37 21.0222L140.132 22.7956C139.971 22.8868 139.861 23.0651 139.861 23.2721C139.862 23.466 139.959 23.6341 140.102 23.7292L140.091 24.0982C139.873 24.1981 139.533 24.4043 139.066 24.832C138.413 25.4301 138.03 26.0926 137.702 26.9209C137.421 27.6274 137.45 28.2726 137.596 28.7928H136.789C136.624 28.7928 136.518 28.9703 136.59 29.1255L137.224 30.5003C137.262 30.5821 137.342 30.6346 137.43 30.6346H137.649L137.307 62.0012H136.461C136.281 62.0012 136.165 62.1812 136.244 62.3386L136.938 63.7315C136.979 63.8141 137.066 63.8674 137.162 63.8674H137.231L137.22 64.3284C136.53 63.688 135.774 63.0899 135.059 62.5262C133.673 61.4344 132.36 60.3989 132.19 59.4998C132.41 59.4222 132.571 59.2016 132.571 58.9389C132.571 58.665 132.396 58.4362 132.162 58.3682L131.998 56.283L131.835 58.3682C131.6 58.4362 131.426 58.665 131.426 58.9389C131.426 59.2016 131.586 59.4222 131.807 59.4998C131.637 60.3989 130.323 61.4344 128.938 62.5262C128.09 63.1937 127.185 63.9089 126.401 64.6865H126.389V64.6992C126.19 64.8969 126 65.0995 125.82 65.3057L125.597 56.9372H125.742C125.797 56.9372 125.848 56.9039 125.872 56.852L126.276 55.9783C126.321 55.8795 126.254 55.7667 126.149 55.7667H125.607C125.704 55.4321 125.724 55.0151 125.54 54.5594C125.329 54.0347 125.076 53.6338 124.667 53.2419C124.375 52.9623 124.143 52.8328 123.998 52.7733L123.991 52.5481C124.082 52.4875 124.143 52.3808 124.143 52.2581C124.144 52.1266 124.073 52.0138 123.972 51.9557L123.82 50.828L123.669 51.9551C123.567 52.0129 123.497 52.1264 123.497 52.2581C123.498 52.3811 123.559 52.488 123.651 52.5484L123.643 52.7832C123.504 52.8466 123.289 52.9775 122.992 53.2495C122.577 53.6295 122.333 54.0505 122.125 54.5772C121.947 55.0261 121.965 55.4363 122.058 55.7667H121.545C121.44 55.7667 121.373 55.8795 121.418 55.9783L121.822 56.852C121.845 56.9039 121.896 56.9372 121.952 56.9372H122.091L121.941 62.9762C120.885 62.0071 119.738 61.0989 118.65 60.2421C116.465 58.5202 114.394 56.8876 114.125 55.4699C114.473 55.3471 114.726 54.999 114.726 54.5848C114.726 54.1532 114.452 53.7926 114.081 53.6851L113.824 50.3972L113.566 53.6851C113.196 53.7926 112.921 54.1532 112.921 54.5848C112.921 54.999 113.174 55.3471 113.522 55.4699C113.253 56.8876 111.182 58.5202 108.997 60.2421C108.243 60.8362 107.461 61.4552 106.699 62.101L106.606 58.5871H106.667C106.737 58.5871 106.801 58.5482 106.831 58.4875L107.338 57.4693C107.396 57.3545 107.311 57.2227 107.18 57.2227H106.572L106.305 47.2032H106.471C106.535 47.2032 106.594 47.1648 106.621 47.105L107.085 46.0998C107.138 45.9864 107.06 45.8566 106.94 45.8566H106.317C106.427 45.4718 106.451 44.9921 106.24 44.4677C105.996 43.8645 105.706 43.4032 105.235 42.9526C104.899 42.6307 104.632 42.482 104.466 42.4135L104.458 42.1542C104.562 42.0848 104.632 41.9618 104.632 41.8207C104.633 41.6698 104.553 41.5397 104.436 41.4729L104.261 40.1759L104.088 41.4723C103.97 41.5389 103.889 41.6692 103.89 41.8207C103.89 41.9624 103.961 42.0854 104.066 42.1548L104.058 42.4248C103.898 42.4978 103.65 42.6482 103.308 42.9611C102.831 43.3984 102.551 43.8825 102.311 44.4883C102.106 45.0046 102.127 45.4763 102.234 45.8566H101.644C101.524 45.8566 101.446 45.9864 101.498 46.0998L101.962 47.105C101.99 47.1648 102.049 47.2032 102.113 47.2032H102.273L102.023 57.2227H101.404C101.351 57.2227 101.307 57.2442 101.275 57.2769C101.217 57.1387 101.158 57.001 101.094 56.8616C100.127 54.7676 98.5651 52.8334 96.7499 51.0277V50.9942H96.7163C94.6672 48.9609 92.2988 47.0898 90.0827 45.3434C86.458 42.4874 83.0221 39.779 82.5774 37.4277C83.1537 37.224 83.5743 36.6468 83.5743 35.9601C83.5743 35.2437 83.118 34.6453 82.5034 34.467L81.9048 30.0686L81.6493 34.467C81.035 34.6453 80.5789 35.2437 80.5789 35.9601C80.5789 36.6468 80.999 37.224 81.5753 37.4277C81.1305 39.779 77.6946 42.4874 74.0702 45.3434C71.8541 47.0898 69.4852 48.9609 67.4363 50.9942H67.403V51.0277C65.5878 52.8334 64.0257 54.7676 63.059 56.8616C63.0033 56.9826 62.9532 57.1025 62.9009 57.2227H62.4916L62.2417 47.2032H62.4018C62.4659 47.2032 62.5245 47.1648 62.552 47.105L63.0162 46.0998C63.0684 45.9864 62.9907 45.8566 62.8702 45.8566H62.2803C62.3871 45.4763 62.4081 45.0046 62.2034 44.4883C61.9631 43.8825 61.6835 43.3984 61.206 42.9611C60.8644 42.6482 60.6163 42.4978 60.4567 42.4248L60.4483 42.1548C60.5533 42.0854 60.6242 41.9624 60.6244 41.8207C60.6247 41.6692 60.5441 41.5389 60.4265 41.4723L60.2527 40.1759L60.0786 41.4729C59.9615 41.5397 59.8814 41.6698 59.8817 41.8207C59.882 41.9618 59.9523 42.0848 60.0568 42.1542L60.0484 42.4135C59.882 42.482 59.6155 42.6307 59.2794 42.9526C58.8084 43.4032 58.5181 43.8645 58.2747 44.4677C58.0631 44.9921 58.0867 45.4718 58.1975 45.8566H57.5748C57.4543 45.8566 57.3765 45.9864 57.4288 46.0998L57.893 47.105C57.9205 47.1648 57.9791 47.2032 58.0431 47.2032H58.2088L57.9423 57.2227H57.3345C57.2033 57.2227 57.1187 57.3545 57.176 57.4693L57.6834 58.4875C57.7136 58.5482 57.7774 58.5871 57.847 58.5871H57.9082L57.815 62.101C57.0539 61.4552 56.2712 60.8362 55.5175 60.2421C53.3323 58.5202 51.2609 56.8876 50.9928 55.4699C51.3404 55.3471 51.5935 54.999 51.5935 54.5848C51.5935 54.1532 51.3186 53.7926 50.9482 53.6851L50.6909 50.3972L50.4334 53.6851C50.0629 53.7926 49.788 54.1532 49.788 54.5848C49.788 54.999 50.0414 55.3471 50.389 55.4699C50.1207 56.8876 48.0492 58.5202 45.8641 60.2421C44.7766 61.0989 43.6293 62.0071 42.5736 62.9762L42.4229 56.9372H42.5624C42.618 56.9372 42.6687 56.9039 42.6928 56.852L43.0961 55.9783C43.1418 55.8795 43.0743 55.7667 42.9693 55.7667H42.4563C42.5495 55.4363 42.5679 55.0261 42.3896 54.5772C42.1809 54.0505 41.9378 53.6295 41.5227 53.2495C41.2255 52.9775 41.0097 52.8466 40.8711 52.7832L40.8637 52.5484C40.9551 52.488 41.0168 52.3811 41.017 52.2581C41.0173 52.1264 40.9469 52.0129 40.8448 51.9551L40.6939 50.828L40.5426 51.9557C40.4408 52.0138 40.3709 52.1266 40.3712 52.2581C40.3715 52.3808 40.4326 52.4875 40.5235 52.5481L40.5164 52.7733C40.3715 52.8328 40.1399 52.9623 39.8477 53.2419C39.4381 53.6338 39.1856 54.0347 38.9742 54.5594C38.7904 55.0151 38.8109 55.4321 38.907 55.7667H38.3656C38.2609 55.7667 38.1934 55.8795 38.2388 55.9783L38.6423 56.852C38.6662 56.9039 38.7172 56.9372 38.7728 56.9372H38.917L38.6943 65.3057C38.5145 65.0995 38.3247 64.8969 38.1259 64.6992V64.6865H38.1131C37.3299 63.9089 36.4241 63.1937 35.5769 62.5262C34.1912 61.4344 32.8777 60.3989 32.7076 59.4998C32.9281 59.4222 33.0888 59.2016 33.0888 58.9389C33.0888 58.665 32.9142 58.4362 32.6795 58.3682L32.5162 56.283L32.3529 58.3682C32.1179 58.4362 31.9436 58.665 31.9436 58.9389C31.9436 59.2016 32.1043 59.4222 32.3245 59.4998C32.1544 60.3989 30.8412 61.4344 29.4555 62.5262C28.7401 63.0899 27.9839 63.688 27.294 64.3284L27.2827 63.8674H27.3525C27.4478 63.8674 27.5353 63.8141 27.5765 63.7315L28.2706 62.3386C28.3491 62.1812 28.2334 62.0012 28.0535 62.0012H27.2071L26.8653 30.6346H27.0845C27.1719 30.6346 27.252 30.5821 27.2898 30.5003L27.9246 29.1255C27.9963 28.9703 27.89 28.7928 27.7251 28.7928H26.918C27.0643 28.2726 27.0931 27.6274 26.8127 26.9209C26.4843 26.0926 26.1018 25.4301 25.4486 24.832C24.9813 24.4043 24.6418 24.1981 24.4236 24.0982L24.4118 23.7292C24.5559 23.6341 24.6526 23.466 24.6531 23.2721C24.6536 23.0651 24.5431 22.8868 24.3824 22.7956L24.1448 21.0222L23.9067 22.7965C23.7465 22.8879 23.6368 23.0656 23.637 23.2721C23.6376 23.4654 23.7337 23.6333 23.8767 23.7283L23.8655 24.083C23.6376 24.1769 23.2729 24.3803 22.8132 24.8202C22.1692 25.4366 21.7717 26.0678 21.4388 26.893C21.1497 27.6102 21.1818 28.2664 21.3332 28.7928H20.4816C20.3167 28.7928 20.2103 28.9703 20.282 29.1255L20.9169 30.5003C20.9547 30.5821 21.0347 30.6346 21.1222 30.6346H21.349L20.9843 62.0012H20.1531C19.9733 62.0012 19.8575 62.1812 19.936 62.3386L20.6302 63.7315C20.6714 63.8141 20.7588 63.8674 20.8541 63.8674H20.9376L20.8113 68.6357C20.3941 68.2692 19.9559 67.9208 19.5361 67.5899C18.5385 66.8038 17.5928 66.0582 17.4702 65.411C17.6288 65.3548 17.7446 65.196 17.7446 65.007C17.7446 64.81 17.6191 64.6453 17.45 64.5962L17.3324 63.0947L17.2148 64.5962C17.0457 64.6453 16.9202 64.81 16.9202 65.007C16.9202 65.196 17.0357 65.3548 17.1945 65.411C17.0719 66.0582 16.1262 66.8038 15.1283 67.5899C14.9826 67.7047 13.6297 68.8205 13.3024 69.1455H13.2932V69.1548C13.0464 69.4003 12.8172 69.6542 12.6158 69.918L12.5499 67.4231H12.5945C12.6457 67.4231 12.6927 67.3949 12.715 67.3503L13.0876 66.6021C13.1296 66.5175 13.0676 66.4213 12.971 66.4213H12.5247L12.3288 49.5767H12.4507C12.4974 49.5767 12.5405 49.5488 12.5609 49.5048L12.9017 48.7665C12.9403 48.6832 12.8831 48.5879 12.7946 48.5879H12.3372C12.4186 48.3052 12.436 47.9528 12.2805 47.5677C12.1017 47.1245 11.8883 46.7856 11.5425 46.4547C11.2957 46.2183 11.0999 46.1091 10.9773 46.0586L10.9712 45.8684C11.0482 45.8171 11.0999 45.7268 11.1002 45.6233C11.1004 45.5124 11.0413 45.4168 10.9552 45.3677L10.8274 44.4152L10.6998 45.3674C10.6135 45.4162 10.5542 45.5121 10.5544 45.6233C10.5547 45.7274 10.6067 45.8177 10.6839 45.8687L10.6777 46.0671C10.5606 46.1207 10.3782 46.2313 10.1272 46.4609C9.77663 46.782 9.57111 47.1377 9.39471 47.5829C9.24417 47.9621 9.25955 48.3086 9.33832 48.5879H8.90481C8.8163 48.5879 8.75917 48.6832 8.79764 48.7665L9.13855 49.5048C9.15884 49.5488 9.20192 49.5767 9.24879 49.5767H9.36651L9.18294 66.4213H8.72833C8.63182 66.4213 8.56978 66.5175 8.61181 66.6021L8.98459 67.3503C9.00675 67.3949 9.05372 67.4231 9.10478 67.4231H9.14243L9.05506 71.3636H1.5V103.613H158.141V71.3636H156.024Z" fill="#B6DCFF"/>
</g>
</g>
</g>
</g>
<path id="path34" d="M143.397 127.595C143.397 127.827 117.17 128.016 84.8176 128.016C52.4653 128.016 26.2383 127.827 26.2383 127.595C26.2383 127.362 52.4653 127.174 84.8176 127.174C117.17 127.174 143.397 127.362 143.397 127.595Z" fill="#D3DAF1"/>
<path id="path36" d="M117.796 112.771C118.119 116.07 117.596 120.27 117.604 121.838C117.612 123.356 117.796 125.182 118.098 126.089C118.191 126.368 114.785 126.783 113.842 126.831C112.711 126.888 111.494 126.47 111.494 126.47C111.494 126.47 113.4 125.312 113.655 122.838C113.909 120.363 113.354 114.308 113.354 114.308L117.796 112.771Z" fill="#E8E5E4"/>
<path id="path38" d="M118.022 127.408C118.321 127.33 118.275 126.482 118.12 125.984C117.946 125.427 117.833 124.971 117.833 124.971C117.833 124.971 116.598 125.485 115.484 125.755C114.074 126.097 112.511 125.387 112.511 125.387C112.511 125.387 109.722 126.179 109.007 126.97C108.187 127.876 112.24 127.871 113.707 127.636C115.175 127.401 117.156 127.632 118.022 127.408Z" fill="#2E3C9B"/>
<path id="path40" d="M111.609 45.3924C109.888 48.3462 107.276 51.6819 106.405 52.77C105.534 53.8581 104.809 56.2136 105.069 57.1356C105.329 58.058 107.839 58.1777 107.839 58.1777L110.584 53.7534L112.193 47.9371L111.609 45.3924Z" fill="white"/>
<path id="path42" d="M122.907 95.9738C121.64 95.8676 120.375 95.7585 119.113 95.6473C115.991 95.372 112.867 94.9735 109.74 94.5902C109.923 97.9562 110.093 101.065 110.196 102.491C110.375 104.974 109.901 119.546 109.901 119.546C112.37 120.392 124.797 120.283 124.797 120.283L122.964 97.5157C122.964 97.5157 122.946 96.9469 122.907 95.9738Z" fill="#5369BB"/>
<path id="path44" d="M114.053 75.3277C112.991 74.1168 111.866 72.7832 110.645 71.4984C111.034 67.701 111.538 64.7398 111.538 64.7398C111.538 64.7398 117.437 64.9856 119.642 68.6621C120.744 70.4988 120.796 77.8834 120.571 84.8145C118.676 81.5044 116.632 78.2664 114.053 75.3277Z" fill="#2A3A99"/>
<path id="path46" d="M120.174 95.7327C119.821 95.7019 119.467 95.6714 119.114 95.6402C117.808 95.5251 116.502 95.3879 115.195 95.2399C115.111 98.2861 115.063 101.095 115.163 102.484C115.342 104.967 114.766 120.101 114.766 120.101C116.234 120.28 118.671 120.16 121.077 120.275L119.88 99.7117C119.88 99.7117 120.01 98.1534 120.174 95.7327Z" fill="#2E3C9B"/>
<path id="path48" d="M126.746 114.308C127.048 117.607 125.967 121.319 125.974 122.887C125.981 124.405 126.456 125.02 126.624 125.695C126.695 125.978 123.464 126.783 122.582 126.831C121.524 126.888 120.387 126.47 120.387 126.47C120.387 126.47 122.169 125.312 122.407 122.838C122.645 120.363 122.126 114.308 122.126 114.308H126.746Z" fill="#E8E5E4"/>
<path id="path50" d="M126.769 127.459C127.057 127.383 126.962 126.412 126.858 126.035C126.721 125.538 126.319 124.836 126.319 124.836C126.319 124.836 125.386 125.527 124.311 125.792C122.95 126.126 121.437 125.407 121.437 125.407C121.437 125.407 119.109 126.184 118.423 126.972C117.636 127.876 121.189 127.892 122.605 127.665C124.021 127.437 125.934 127.679 126.769 127.459Z" fill="#2E3C9B"/>
<path id="path52" d="M128.624 100.745C128.624 100.745 128.827 99.0712 129.114 96.4585C125.769 96.2137 122.433 95.9359 119.115 95.6431C118.751 95.6111 118.387 95.5769 118.023 95.5419C118.428 98.6019 118.746 101.404 118.717 102.777C118.696 103.721 118.63 106.459 118.556 109.497C118.438 114.48 118.298 120.266 118.298 120.266C120.678 121.295 129.431 121.219 129.431 121.219L129.047 111.501L128.624 100.745Z" fill="#5369BB"/>
<path id="path54" d="M129.112 96.4534C125.768 96.2086 122.432 95.9308 119.114 95.6381C115.991 95.3628 112.867 94.9643 109.74 94.581C109.923 97.947 110.093 101.056 110.197 102.483C110.243 103.129 110.246 104.603 110.225 106.428C110.316 106.472 110.407 106.519 110.501 106.563C111.413 106.993 112.343 107.397 113.28 107.777C113.389 107.821 113.853 107.997 114.088 108.087C114.269 108.153 114.444 108.213 114.503 108.235C115.835 108.699 117.188 109.116 118.555 109.492C120.142 109.928 121.747 110.308 123.365 110.631C123.442 110.646 123.515 110.659 123.592 110.675C123.739 110.703 123.886 110.734 124.033 110.762V110.756C124.487 110.844 124.945 110.932 125.403 111.007C126.298 111.161 127.245 111.361 128.157 111.424C128.325 111.433 128.476 111.443 128.549 111.452C128.717 111.468 128.881 111.484 129.045 111.496L128.622 100.74C128.622 100.74 128.825 99.0661 129.112 96.4534Z" fill="#2E3C9B"/>
<path id="path56" d="M131.447 106.932C129.475 107.577 123.59 108.011 116.883 106.774C116.834 106.765 116.786 106.756 116.737 106.747C115.739 106.56 114.788 106.366 113.907 106.175C110.674 105.472 108.408 104.815 108.408 104.815C108.408 104.815 109.163 91.7895 109.704 79.0515C109.973 72.6767 110.031 67.0935 109.993 63.0117C109.956 58.9328 109.822 56.3524 109.704 55.9711C109.272 54.5637 110.319 50.8337 111.287 48.6842C111.37 48.4995 111.453 48.3267 111.533 48.1682C112.557 46.1625 114.941 39.1122 114.941 39.1122L116.437 38.9959C116.437 38.9959 113.636 43.028 118.803 42.8198C121.656 42.7052 125.876 40.7813 125.876 40.7813L125.541 42.0367C125.541 42.0367 127.447 49.6961 128.337 54.9303C128.585 56.3816 128.754 57.6485 128.783 58.5105C128.829 59.9212 129.178 66.2284 129.609 73.7851C130.394 87.5522 131.447 106.932 131.447 106.932Z" fill="white"/>
<path id="path58" d="M109.984 62.2702C111.241 63.4543 112.122 63.8446 114.042 64.7464C115.373 65.3712 117.299 65.3442 119.189 65.838C122.188 66.6215 123.097 70.2568 129.43 70.6406C129.171 66.022 128.815 59.516 128.782 58.5166C128.754 57.6546 128.585 56.3877 128.336 54.9363L119.752 46.5264C119.2 45.9838 118.568 45.4063 117.801 45.3945C117.354 45.3885 116.928 45.5823 116.522 45.7758C114.722 46.6376 112.971 47.6112 111.286 48.6903C110.319 50.8397 109.272 54.5698 109.704 55.9772C109.814 56.3344 109.939 58.6246 109.984 62.2702Z" fill="#E8E5E4"/>
<path id="path60" d="M132.544 60.9567C132.518 59.2441 132.35 57.5787 132.061 56.2178C131.354 52.9043 128.994 45.7585 128.482 42.2179C127.969 38.6801 125.831 30.0759 125.831 30.0759L121.782 31.8901L121.59 31.9751L115.374 36.871C115.193 37.291 113.898 40.061 113.027 41.5174C112.189 42.9185 108.457 48.3362 107.639 51.1864C107.639 51.1864 109.267 52.652 110.583 57.1482C111.135 59.0328 114.042 64.7438 114.042 64.7438C114.042 64.7438 116.469 62.8539 118.172 60.6825C119.021 59.1723 120.886 57.0987 120.93 57.0702C121.769 56.4296 122.734 56.0188 123.752 56.0288C124.006 55.1072 128.099 58.4973 128.32 59.5901C128.578 60.8677 128.923 64.7488 129.025 66.0492C129.212 68.4401 129.335 71.2898 129.608 72.8867C129.877 72.2462 131.11 70.1235 131.855 67.446C132.367 65.6074 132.581 63.2382 132.544 60.9567Z" fill="#5369BB"/>
<path id="path62" d="M118.459 55.7778C120.441 53.2033 122.838 51.7985 125.142 50.9632C125.142 50.9632 121.317 53.1481 120.487 56.2773L118.459 55.7778Z" fill="#2E3C9B"/>
<path id="path64" d="M130.5 58.6688C129.498 56.9267 127.936 55.4818 125.906 55.2498C123.829 55.0125 121.669 56.0971 120.126 57.4607C118.173 59.1868 116.129 62.0866 113.241 60.521C112.46 60.0972 111.822 59.5131 111.242 58.8633C112.283 61.2858 114.043 64.7435 114.043 64.7435C114.043 64.7435 116.471 62.8539 118.173 60.6825C119.023 59.1723 120.887 57.0987 120.932 57.0702C121.771 56.4296 122.735 56.0188 123.753 56.0288C124.008 55.1073 128.1 58.4973 128.321 59.5901C128.579 60.8677 128.925 64.7488 129.027 66.0492C129.214 68.4401 129.337 71.2898 129.61 72.8867C129.879 72.2462 131.111 70.1235 131.856 67.4458C132.15 66.3889 132.343 65.1543 132.45 63.864C131.943 62.0871 131.414 60.2587 130.5 58.6688Z" fill="#2E3C9B"/>
<path id="path66" d="M111.652 45.9296C112.368 49.5056 114.656 49.5471 117.539 47.4467C119.982 45.6673 123.427 39.3578 123.427 39.3578C123.427 39.3578 119.142 49.2848 115.114 50.3117C111.085 51.3388 111.652 45.9296 111.652 45.9296Z" fill="#2E3C9B"/>
<path id="path68" d="M120.899 35.2962C120.443 37.3766 118.276 40.6999 116.606 40.4949C115.415 40.3486 114.191 37.7379 114.671 36.9683C115.185 37.2976 115.999 37.9166 116.596 38.1514C116.753 38.2127 116.919 38.2732 117.09 38.2704C117.266 38.2702 117.419 38.2034 117.563 38.1397C118.435 37.7434 119.985 35.3137 120.899 35.2962Z" fill="#2E3C9B"/>
<path id="path70" d="M115.974 26.1663C114.244 26.3321 113.897 27.2919 113.897 27.2919C113.566 27.9062 112.72 29.3846 112.638 30.4519C112.556 31.5197 113.433 34.8875 114.151 35.7561C114.684 36.4014 115.504 36.8984 115.504 36.8984L117.99 30.3989L115.974 26.1663Z" fill="#2E3C9B"/>
<path id="path72" d="M114.799 26.4226C114.473 27.2522 112.956 29.6704 112.972 30.5815C112.984 31.232 113.028 32.3211 112.952 33.9085C112.876 35.5016 114.349 37.2608 114.678 37.6023C115.006 37.9438 116.312 39.4067 117.759 38.7719C118.682 38.3671 119.41 37.594 119.977 36.8927C120.544 36.1912 121.654 33.9037 121.9 32.4331C122.146 30.9625 120.344 27.3874 120.344 27.3874L114.799 26.4226Z" fill="#F7AF7A"/>
<path id="path74" d="M121.297 33.0176C121.297 33.0176 122.354 29.0982 121.69 28.2129C120.463 26.5793 116.356 26.0025 114.828 27.0381C114.419 27.3151 113.555 28.2612 113.395 29.2215C114.588 27.9592 116.98 27.5274 119.023 28.9787C120.566 30.0751 121.297 33.0176 121.297 33.0176Z" fill="#F1F6FC"/>
<path id="path76" d="M113.258 28.5213C114.157 27.3957 115.367 27.0175 115.824 26.9962C118.229 26.8857 120.04 27.694 120.9 31.2586C121.333 33.0534 120.544 35.9942 120.544 35.9942L126.769 36.6562C126.769 36.6562 126.239 31.7351 125.834 30.0762C124.551 24.8315 120.797 24.3332 118.907 24.3512C117.147 24.368 115.496 25.2031 114.51 26.2001C113.667 27.054 113.258 28.5213 113.258 28.5213Z" fill="#5369BB"/>
<path id="path78" d="M109.249 51.675C108.319 52.7701 106.047 55.4221 105.326 56.4506C104.604 57.4792 105.297 60.1477 106.364 60.7035C107.432 61.2595 110.048 60.4437 111.106 58.9613C112.164 57.4792 111.235 56.4506 111.512 55.9781C111.789 55.5056 111.858 54.7335 111.858 54.7335L109.249 51.675Z" fill="white"/>
<path id="path80" d="M109.736 51.5273C109.461 51.8696 109.956 54.4563 110.88 55.0311C111.804 55.6059 112.091 54.4905 111.937 53.4094C111.783 52.3286 110.344 50.7717 109.736 51.5273Z" fill="#C13F3B"/>
<path id="path82" d="M111.998 43.1719C111.944 43.1839 111.912 43.1992 111.912 43.1992C111.912 43.1992 111.874 42.8086 111.649 42.3974L111.62 42.3456C111.305 41.731 111.029 42.0216 111.029 42.0216C111.029 42.0216 111.052 41.9013 110.921 41.4313C110.783 40.9425 110.435 40.7642 110.299 40.87C110.085 41.041 110.19 41.7143 110.19 41.7143C110.093 41.4533 109.881 41.387 109.725 41.5533C109.602 41.6828 109.604 42.8604 109.652 43.5625C109.652 43.5625 109.508 43.557 109.376 43.7487C109.195 44.0117 109.242 44.9396 109.302 45.7374C109.352 46.4454 108.88 47.6045 109.006 48.0733C109.134 48.5376 109.353 48.9446 109.603 49.4139C109.705 49.6089 109.818 50.1115 109.71 50.6348C109.604 51.1488 109.374 51.4604 109.248 51.6736C109.178 52.7112 110.563 55.0962 110.88 55.0299C110.949 54.8344 112.283 51.4976 112.464 51.0786C112.825 50.2453 113.3 49.8602 113.423 49.3104C113.546 48.7609 113.182 46.4779 113.051 45.6376C112.944 44.9893 112.683 44.1092 112.536 43.5107C112.443 43.1217 112.144 43.1399 111.998 43.1719Z" fill="#E39D75"/>
<path id="path84" d="M115.522 54.4276C115.367 55.0484 114.654 54.9701 114.211 55.0149C113.857 55.0506 114.147 53.7763 114.306 52.3489C114.456 50.9928 115.257 50.1052 115.669 50.733C116.08 51.3606 115.835 53.171 115.522 54.4276Z" fill="#C13F3B"/>
<path id="path86" d="M122.749 55.3016C122.633 56.9319 122.562 58.5651 122.472 60.1792C122.469 60.2847 122.467 60.3875 122.459 60.4902C121.564 60.0224 120.585 59.4626 119.786 58.8949C118.385 57.8973 116.201 55.3313 114.752 53.7712C114.248 53.2764 113.204 51.4187 112.871 51.097C112.204 50.4617 111.605 50.2966 111.275 49.8288C110.943 49.3638 110.389 47.0629 110.183 46.2166C110.027 45.5622 109.927 44.6239 109.829 43.9994C109.766 43.5966 110.054 43.4883 110.204 43.4586C110.26 43.4478 110.294 43.4478 110.294 43.4478C110.294 43.4478 110.178 43.0638 110.228 42.5853L110.233 42.5232C110.262 42.1527 110.376 42.0202 110.481 41.977C110.544 41.95 110.605 41.9579 110.637 41.9662L110.661 41.9742C110.661 41.9742 110.639 41.9417 110.61 41.8309C110.597 41.7659 110.584 41.6984 110.571 41.6309L110.568 41.6147L110.55 41.5037L110.531 41.3739C110.468 40.8576 110.726 40.5438 110.895 40.5871C110.993 40.6141 111.075 40.7171 111.143 40.8414L111.146 40.8521C111.265 41.0684 111.331 41.3361 111.331 41.3361C111.325 41.2279 111.349 41.1389 111.394 41.0739C111.457 40.9711 111.573 40.9359 111.703 40.9929C111.869 41.0659 112.27 42.023 112.502 42.7043C112.676 43.2098 112.903 43.5721 112.972 43.7886L112.99 43.7804C113.014 43.7724 113.059 43.7561 113.112 43.7506C113.193 43.7343 113.301 43.7399 113.399 43.8021C113.673 43.9724 113.705 44.0509 113.961 44.8294C114.193 45.5162 114.874 46.3411 114.94 46.8359C115.001 47.3251 114.955 47.8009 114.905 48.3445C114.858 48.8905 115.143 49.8994 115.707 50.5724V50.5752C117.285 51.8595 119.702 53.4006 120.942 54.1605C121.364 54.42 122.203 54.8013 122.749 55.3016Z" fill="#F7AF7A"/>
<path id="path88" d="M125.91 64.2312C125.139 64.1247 118.959 61.0294 116.832 59.2108C116.33 58.781 115.513 57.1536 115.287 56.6486C114.889 55.7675 114.369 55.1777 114.24 55.0399C114.326 55.1057 114.607 55.1402 115.167 53.6568C115.859 51.8287 115.651 50.5366 115.651 50.5366L117.695 51.7817C117.695 51.7942 121.768 53.8201 121.896 53.8828L121.899 53.8858C121.899 53.8858 122.912 53.4468 123.643 53.3591C125.479 53.1395 129.359 54.1461 129.359 57.6772C129.359 58.3045 129.61 64.7395 125.91 64.2312Z" fill="white"/>
<path id="path90" d="M110.967 46.4941C110.933 46.4421 110.714 46.0709 110.59 45.3303C110.479 44.6705 110.266 43.8232 110.203 43.4561C110.257 43.4454 110.294 43.4464 110.294 43.4464C110.294 43.4464 110.177 43.0629 110.227 42.5823L110.233 42.5216C110.342 42.9211 110.564 44.3825 110.69 45.0888C110.806 45.7461 110.949 46.4134 110.967 46.4941Z" fill="#E38375"/>
<path id="path92" d="M111.626 46.123C111.626 46.123 111.284 45.1437 111.213 44.9002C111.107 44.5379 110.547 42.198 110.48 41.9762C110.544 41.9492 110.604 41.9572 110.636 41.9655C110.771 42.6305 111.626 46.123 111.626 46.123Z" fill="#E38375"/>
<path id="path94" d="M112.445 45.8516C112.39 45.646 111.844 43.7519 111.625 42.9706C111.395 42.1458 111.329 41.3429 111.145 40.8479C111.263 41.0642 111.329 41.3319 111.329 41.3319C111.324 41.2237 111.348 41.1347 111.393 41.0697C111.448 41.3859 111.814 42.9928 111.896 43.3496C112.199 44.67 112.395 45.5865 112.445 45.8516Z" fill="#E38375"/>
<path id="path96" d="M113.978 46.6309C113.978 46.6309 113.801 46.2441 113.706 45.9385C113.612 45.633 113.329 44.9407 113.166 44.4134C113.126 44.2864 113.063 44.0539 112.986 43.7781C113.01 43.7701 113.055 43.7539 113.108 43.7484C113.269 44.4189 113.604 45.3763 113.762 45.6465C113.962 45.9926 113.978 46.6309 113.978 46.6309Z" fill="#E38375"/>
<path id="path98" d="M116.735 106.752C115.736 106.564 114.786 106.371 113.905 106.18C113.456 101.538 112.237 86.5688 112.623 80.446C113.096 72.9834 113.422 69.2564 113.422 69.2564C113.422 69.2564 113.791 81.3784 114.154 89.026C114.443 95.0315 115.96 103.113 116.735 106.752Z" fill="#E8E5E4"/>
<path id="path100" d="M126.83 37.459C126.649 33.9614 123.428 28.86 123.428 28.86C123.428 28.86 125.884 31.107 126.649 33.9614C127.126 35.7426 126.83 37.459 126.83 37.459Z" fill="#2E3C9B"/>
<path id="path102" d="M124.15 54.3769C124.636 55.3585 125.386 58.0147 125.431 58.1777C124.303 55.9293 121.9 53.8909 121.9 53.8909C121.9 53.8909 122.913 53.4518 123.644 53.3641C125.481 53.1446 129.36 54.1511 129.36 57.6822C128.724 54.7532 124.15 54.3769 124.15 54.3769Z" fill="#E8E5E4"/>
<path id="path104" d="M114.82 35.6035C114.843 35.8645 115.172 36.5603 115.903 36.4776C116.619 36.3966 116.961 35.6095 117.074 35.3127C116.788 35.6505 115.312 36.0748 114.82 35.6035Z" fill="#452528"/>
<path id="path106" d="M115.646 32.5939C115.442 33.104 115.285 33.5017 115.176 33.8095C115.067 34.1178 115.006 34.3341 114.996 34.4926L114.996 34.5051C114.996 34.5583 115.017 34.6071 115.047 34.6446C115.101 34.7103 115.18 34.7518 115.267 34.7858C115.528 34.8851 115.886 34.9056 115.889 34.9061C115.927 34.9086 115.96 34.8788 115.962 34.8398C115.965 34.8006 115.936 34.7671 115.898 34.7648C115.897 34.7648 115.848 34.7616 115.772 34.7528C115.658 34.7393 115.486 34.7123 115.349 34.6653C115.281 34.6418 115.221 34.6131 115.184 34.5831C115.146 34.5523 115.134 34.5283 115.134 34.5051V34.5008C115.141 34.3723 115.199 34.1608 115.306 33.8578C115.413 33.5542 115.57 33.1575 115.774 32.6477C115.788 32.6114 115.772 32.5702 115.736 32.5552C115.701 32.5404 115.661 32.5577 115.646 32.5939" fill="#F78E7B"/>
<path id="path108" d="M117.411 32.531C117.396 32.778 117.243 32.9693 117.068 32.9586C116.892 32.9478 116.762 32.739 116.776 32.4923C116.791 32.2452 116.945 32.0537 117.12 32.0647C117.295 32.0755 117.425 32.2842 117.411 32.531Z" fill="#452528"/>
<path id="path110" d="M113.436 33.7565C113.436 33.7565 113.787 33.9561 114.271 33.8888C114.271 33.8888 113.766 34.4864 113.436 33.7565Z" fill="#F6A56A"/>
<path id="path112" d="M117.217 34.0722C117.217 34.0722 117.608 34.1642 118.056 33.9622C118.056 33.9622 117.731 34.6798 117.217 34.0722Z" fill="#F6A56A"/>
<path id="path114" d="M113.455 30.683C113.821 30.4935 114.385 30.4145 114.679 30.5712C114.679 30.5712 114.503 30.8558 114.418 30.8673C114.262 30.8885 113.898 30.8368 113.577 30.948C113.287 31.0488 113.027 31.2793 113.027 31.2793C113.074 31.0383 113.187 30.8218 113.455 30.683Z" fill="#452528"/>
<path id="path116" d="M117.977 30.4572C117.531 30.3442 116.854 30.3575 116.465 30.4647C116.465 30.4647 116.689 30.7465 116.791 30.7565C116.979 30.7747 117.593 30.7152 117.991 30.7815C118.375 30.8455 118.667 31.1035 118.667 31.1035C118.572 30.8037 118.269 30.531 117.977 30.4572Z" fill="#452528"/>
<path id="path118" d="M113.844 32.3103C113.83 32.5573 113.676 32.7486 113.501 32.7378C113.326 32.7271 113.195 32.5181 113.21 32.2713C113.224 32.0245 113.378 31.833 113.553 31.8438C113.729 31.8545 113.859 32.0635 113.844 32.3103Z" fill="#452528"/>
<path id="path120" d="M57.2389 40.962C55.4117 41.0971 53.9263 44.6658 54.5847 47.7521C55.0087 49.74 56.7827 53.4723 57.7139 55.4337C58.8566 57.8409 60.1564 58.2902 60.1564 58.2902C60.1564 58.2902 65.3727 59.8074 64.442 55.0035C64.0873 53.1733 62.5906 48.9605 61.4518 46.9378C58.6705 41.9964 57.2389 40.962 57.2389 40.962Z" fill="#5369BB"/>
<path id="path122" d="M48.8688 30.9547C48.8688 30.9547 47.6139 36.2082 47.4222 36.5229C46.6789 37.745 46.52 37.623 44.6016 39.2389C44.6016 39.2389 51.0035 43.1167 53.0098 43.3117C55.0161 43.507 54.6948 39.3139 54.6948 39.3139C54.6948 39.3139 53.3557 38.3631 53.1281 37.76C52.7902 36.8647 52.5028 32.9229 52.5028 32.9229L48.8688 30.9547Z" fill="#F7AF7A"/>
<path id="path124" d="M52.8447 37.747C52.0415 37.5058 51.2528 37.215 50.4905 36.8607C50.3526 36.7979 50.2168 36.7304 50.0816 36.6622C49.7742 36.4727 49.4722 36.2772 49.1804 36.0629C49.0726 35.9839 48.5166 35.5121 48.4783 35.5076C48.2951 35.3121 48.1185 35.1101 47.9465 34.9048L47.9004 34.855C48.3261 33.2109 48.8662 30.9502 48.8662 30.9502L52.5002 32.9184C52.5002 32.9184 52.7876 36.8602 53.1254 37.7555C53.1347 37.7803 53.1486 37.8063 53.1616 37.832C53.0249 37.7963 52.8961 37.7623 52.8447 37.747Z" fill="#F79273"/>
<path id="path126" d="M54.9239 24.1215C55.9693 25.0318 56.2042 26.4945 55.9983 27.474C55.7919 28.4531 55.0557 30.6328 55.0557 30.6328C55.0557 30.6328 54.3082 27.2768 53.8042 26.0887C53.2999 24.9006 52.4648 23.3365 52.4648 23.3365L54.9239 24.1215Z" fill="#452528"/>
<path id="path128" d="M53.4742 23.9795C54.1393 24.3568 55.2815 25.1579 55.3386 25.7612C55.3956 26.3645 55.6606 28.1299 55.584 29.1672C55.5074 30.2043 55.6925 32.2275 55.5247 33.4388C55.3571 34.6502 53.9753 36.4301 53.6421 36.6196C52.2123 37.4339 50.6836 36.5316 49.4946 35.7155C48.1109 34.7659 47.0902 33.8821 47.1875 31.2904C47.1875 31.2904 46.5903 26.3545 46.8511 25.6397C47.3156 24.3661 49.3753 24.4368 50.8485 24.5078C51.385 24.5336 51.8439 24.5593 52.1196 24.5203C53.1517 24.3733 53.4742 23.9795 53.4742 23.9795Z" fill="#F7AF7A"/>
<path id="path130" d="M48.3993 26.2511C48.0493 26.8136 47.3572 27.4259 47.4433 27.9432C47.6153 28.9776 47.9988 29.5534 47.9988 29.5534L47.6048 30.54C47.6048 30.54 47.8278 30.7902 47.4401 31.8313C47.2293 32.3979 44.104 28.5018 44.67 25.5465C45.0323 23.6541 46.8268 24.2412 46.8268 24.2412C47.1239 22.3243 48.1559 21.536 51.197 21.6532C54.9559 21.798 56.4655 23.0228 56.4655 23.0228C56.4487 23.4554 56.4238 25.5073 53.7042 25.4598C50.9845 25.412 48.7572 25.1753 48.7572 25.1753C48.7572 25.1753 48.7492 25.6883 48.3993 26.2511Z" fill="#452528"/>
<path id="path132" d="M55.5756 30.6445C55.5663 30.2187 55.5597 29.8175 55.5688 29.4797C55.9115 29.4977 56.0879 29.5484 56.1742 29.6329C56.2933 29.7497 56.3706 30.0827 56.2287 30.5378C56.011 30.573 55.7927 30.6085 55.5756 30.6445Z" fill="white"/>
<path id="path134" d="M55.5889 31.2266C55.585 31.0303 55.5803 30.8355 55.5762 30.6453C55.7933 30.6093 56.0116 30.5738 56.2292 30.5385C56.219 30.5715 56.2075 30.6053 56.1948 30.6395C56.0877 30.9295 55.9226 31.1341 55.5889 31.2266Z" fill="#F3F6FC"/>
<path id="path136" d="M55.1065 31.2832C55.0761 31.2832 55.0451 31.2827 55.0131 31.2817C54.3393 31.2614 54.2337 31.0647 54.1312 30.6492C54.0287 30.2336 54.0424 29.8013 54.0732 29.7116C54.1568 29.4671 54.1739 29.4981 54.947 29.4783C55.0551 29.4756 55.1544 29.4741 55.2456 29.4741C55.3669 29.4741 55.4737 29.4766 55.5681 29.4813C55.5591 29.8191 55.5657 30.2204 55.5749 30.6462C55.5791 30.8364 55.5837 31.0312 55.5876 31.2274C55.4559 31.2642 55.2978 31.2832 55.1065 31.2832Z" fill="#FCCFC2"/>
<path id="path138" d="M51.6331 31.2793C51.5787 31.2793 51.5209 31.278 51.4594 31.2755C50.7266 31.2463 50.2326 31.1548 50.1291 30.5147C50.0223 29.8534 50.0635 29.5529 50.1967 29.4261C50.2672 29.3591 50.4221 29.3356 50.6695 29.3356C50.8908 29.3356 51.186 29.3544 51.5609 29.3776C52.3548 29.4269 52.6194 29.4434 52.7017 29.7034C52.7319 29.7989 52.7292 30.1537 52.6177 30.5865C52.5131 30.993 52.4723 31.2793 51.6331 31.2793Z" fill="#FCCFC2"/>
<path id="path140" d="M47.0695 29.651L49.3271 29.6302L50.036 29.0292C50.036 29.0292 48.845 29.0099 47.7502 29.0324C47.2305 29.0432 46.666 29.2652 46.666 29.2652C46.666 29.2652 46.888 29.3999 47.0695 29.651ZM50.1973 29.4295C50.3307 29.3024 50.7677 29.3317 51.5615 29.3809C52.3556 29.4302 52.62 29.4467 52.7022 29.7067C52.7325 29.8022 52.7298 30.157 52.6183 30.5898C52.5068 31.0228 52.4678 31.3194 51.46 31.2789C50.7272 31.2496 50.2331 31.1581 50.1297 30.518C50.0229 29.8567 50.0641 29.5562 50.1973 29.4295ZM54.0733 29.7142C54.1569 29.4697 54.174 29.5007 54.9471 29.481C55.72 29.461 56.0457 29.512 56.1737 29.6372C56.3016 29.7625 56.3809 30.1363 56.1937 30.6431C56.0376 31.0658 55.7585 31.3069 55.0132 31.2846C54.3394 31.2641 54.2338 31.0673 54.1313 30.6518C54.0289 30.2363 54.0425 29.804 54.0733 29.7142ZM49.3271 29.6302C49.3498 29.7385 49.6564 29.8087 49.7091 29.8397C49.8233 29.907 49.7745 30.2318 49.9404 30.7063C50.1543 31.3194 50.7023 31.4769 51.8235 31.4154C52.8528 31.3589 52.862 30.5778 53.0018 30.254C53.1421 29.9305 53.2372 29.8882 53.3956 29.8915C53.5505 29.8947 53.631 29.9392 53.7664 30.2675C53.9015 30.596 53.8305 31.3726 54.8637 31.4124C55.5768 31.4399 56.0478 31.3179 56.2418 30.8681C56.4145 30.4673 56.5243 30.063 56.5628 29.753C56.6016 29.44 56.6341 29.2507 56.4528 29.2032C56.2296 29.1452 55.6663 29.1377 55.3565 29.1324C54.7371 29.1214 54.3026 29.0594 53.9347 29.2052C53.5663 29.3509 53.5756 29.4795 53.3987 29.4785C53.2177 29.4772 53.2148 29.3447 52.8491 29.1859C52.4829 29.0274 51.4356 29.0222 50.8162 29.0112C50.197 29.0004 49.3312 29.0539 49.3068 29.2494C49.2939 29.3544 49.3003 29.504 49.3271 29.6302Z" fill="#1D364D"/>
<path id="path142" d="M47.9637 30.8905C47.9637 30.8905 47.6702 30.0464 47.1291 29.5036C46.6724 29.0456 45.9815 29.0306 45.7993 29.7504C45.5773 30.627 46.3614 31.192 46.4018 31.7076C46.4475 32.2861 46.8783 32.7994 47.2852 32.9102L47.9637 30.8905Z" fill="#F7AF7A"/>
<path id="path144" d="M47.3908 31.6445C47.0554 31.6445 46.8573 31.1817 46.8419 30.7915C46.8324 30.5552 46.6312 30.2344 46.4428 30.2344C46.4011 30.2344 46.3599 30.2504 46.3218 30.2862C46.1925 30.4077 46.1079 30.5224 46.0747 30.5224C46.0537 30.5224 46.053 30.4772 46.074 30.3594C46.1154 30.1284 46.2686 29.9131 46.485 29.9131C46.5538 29.9131 46.6292 29.9351 46.709 29.9851C46.9942 30.1637 47.163 30.3259 47.3218 30.72C47.3955 30.9032 47.4089 30.9137 47.4123 30.9137C47.4126 30.9137 47.4128 30.9137 47.4128 30.9135C47.413 30.9135 47.413 30.9135 47.4133 30.9135C47.415 30.9135 47.413 30.9245 47.4614 31.12C47.5628 31.5308 47.757 31.626 47.4099 31.644C47.4035 31.6443 47.3972 31.6445 47.3908 31.6445Z" fill="#F1917E"/>
<path id="path146" d="M55.3404 126.4C54.3258 126.028 53.2385 124.971 53.2385 124.971L53.166 120.124L56.6453 120.435C56.6453 120.435 56.5002 124.163 56.6453 124.909C56.7902 125.655 55.3404 126.4 55.3404 126.4Z" fill="#424EA9"/>
<path id="path148" d="M57.2197 124.846C56.6125 124.526 56.048 124.659 55.2897 125.094C54.5318 125.529 53.1534 124.97 53.1534 124.97C53.1534 124.97 52.8778 125.219 52.7397 126.088C52.6018 126.958 52.533 127.456 52.6709 127.766C52.8087 128.077 60.5687 127.766 61.2579 127.766C61.9471 127.766 61.7402 127.145 60.6375 126.71C59.5348 126.275 58.0467 125.281 57.2197 124.846Z" fill="#1D364D"/>
<path id="path150" d="M47.6621 80.5286C47.6621 80.5286 49.8626 93.7704 50.1812 96.5817C50.4998 99.3929 52.2121 122.895 52.2121 122.895C52.2121 122.895 57.1337 122.991 57.1337 122.895C57.1337 122.798 59.3401 97.4395 59.413 90.4604C59.4859 83.4813 58.1376 77.4536 58.8138 76.5233C59.4901 75.5927 57.4796 68.6444 57.4796 68.6444L51.9121 69.7154L47.6621 80.5286Z" fill="#1D364D"/>
<path id="path152" d="M51.5549 70.6245C51.683 73.868 51.7159 77.1143 51.6974 80.3613C51.1575 88.6508 53.017 95.4693 53.1423 103.776C53.216 108.659 54.0852 121.351 54.2099 122.934C52.9652 122.923 52.2121 122.895 52.2121 122.895C52.2121 122.895 50.4998 99.3934 50.1812 96.5822C49.8626 93.7709 47.6621 80.5291 47.6621 80.5291L51.5549 70.6245Z" fill="#192B3B"/>
<path id="path154" d="M44.4866 126.4C43.4317 126.028 42.3019 124.971 42.3019 124.971L42.2266 120.124L45.8425 120.435C45.8425 120.435 45.692 124.163 45.8425 124.909C45.9932 125.655 44.4866 126.4 44.4866 126.4Z" fill="#424EA9"/>
<path id="path156" d="M46.5245 124.846C45.8936 124.526 45.3066 124.659 44.5189 125.094C43.7309 125.529 42.2982 124.97 42.2982 124.97C42.2982 124.97 42.0118 125.219 41.8686 126.088C41.7251 126.958 41.6536 127.456 41.7968 127.766C41.94 128.077 48.9938 127.766 49.71 127.766C50.4263 127.766 50.2114 127.145 49.0653 126.71C47.9192 126.275 47.3842 125.281 46.5245 124.846Z" fill="#1D364D"/>
<path id="path158" d="M40.368 67.7503C40.368 67.7503 39.6627 79.1608 40.1696 88.5648C40.6763 97.9691 41.5304 122.91 41.5304 122.91H46.8326C46.8326 122.91 50.0699 98.3419 51.275 92.2033C52.4799 86.0648 54.2091 68.5509 54.2091 68.5509L40.368 67.7503Z" fill="#1D364D"/>
<path id="path162" d="M53.3734 109.6C53.2541 107.307 53.1645 105.21 53.1428 103.781C53.0621 98.4254 52.2607 93.6885 51.8457 88.7776C52.7996 82.3044 53.8522 72.103 54.1362 69.2925L57.4801 68.6492C57.4801 68.6492 58.9546 73.7456 58.9531 75.7936C58.9529 76.1368 58.9112 76.3946 58.8143 76.5281C58.6782 76.7154 58.624 77.1087 58.6238 77.6747C58.6231 79.8479 59.4166 84.5653 59.4164 89.9155C59.4164 90.098 59.4154 90.2813 59.4135 90.4653C59.4132 90.4823 59.413 90.4995 59.4127 90.5168C59.4127 90.5233 59.4127 90.5303 59.4125 90.5368C59.4125 90.539 59.4125 90.5413 59.4125 90.5435C59.4125 90.5445 59.4125 90.5463 59.4125 90.5473C59.3688 94.0311 58.8155 101.845 58.2644 108.906C58.1281 108.927 57.9919 108.95 57.8553 108.97C56.3633 109.195 54.8691 109.404 53.3734 109.6Z" fill="#1B2C3B"/>
<path id="path164" d="M51.3635 109.854C50.9626 105.162 50.553 100.442 50.3242 98.0058C50.6967 95.5276 51.0297 93.4667 51.2774 92.2053C51.4579 91.2852 51.6501 90.1101 51.8467 88.776C52.2617 93.6869 53.0631 98.4238 53.1439 103.779C53.1656 105.208 53.2551 107.306 53.3744 109.598C52.7045 109.686 52.0341 109.771 51.3635 109.854Z" fill="#17242E"/>
<path id="path166" d="M41.0971 110.943C41.0805 110.495 41.064 110.042 41.0469 109.584C41.0493 109.585 41.0488 109.585 41.051 109.586C41.0681 110.043 41.0849 110.496 41.1015 110.943C41.1001 110.943 41.0986 110.943 41.0971 110.943Z" fill="#FBC7CC"/>
<path id="path168" d="M48.5579 110.186C49.1331 106.039 49.7669 101.584 50.3151 97.9938C50.3163 98.0073 50.3175 98.0213 50.3185 98.035C49.7825 101.602 49.1646 106.028 48.6001 110.181C48.5862 110.182 48.572 110.184 48.5579 110.186ZM41.0533 109.587C41.0511 109.586 41.0516 109.586 41.0491 109.585C40.7691 102.04 40.4278 93.3649 40.1758 88.6593C40.4324 93.4502 40.7762 102.153 41.0533 109.587Z" fill="#887CBA"/>
<path id="path170" d="M50.3199 98.0312C50.3189 98.0173 50.3176 98.0032 50.3164 97.9895C50.3179 97.9799 50.3191 97.9705 50.3206 97.9609C50.3218 97.9743 50.3233 97.9877 50.3246 98.0011C50.3231 98.0113 50.3216 98.0211 50.3199 98.0312Z" fill="#17242E"/>
<path id="path172" d="M41.1024 110.943C41.0858 110.497 41.069 110.043 41.0519 109.586C40.7748 102.152 40.4311 93.4489 40.1744 88.658C40.1727 88.6268 40.1712 88.596 40.1695 88.565C40.0356 86.0808 39.9863 83.4568 39.9863 80.9399C39.9861 73.9288 40.3679 67.7505 40.3679 67.7505L54.209 68.5511C54.209 68.5511 54.1829 68.8149 54.1348 69.2892L51.9112 69.7169L47.6612 80.5301C47.6612 80.5301 49.8617 93.7719 50.1803 96.5832C50.2115 96.8579 50.2584 97.3322 50.3179 97.9643C50.3164 97.9738 50.3152 97.983 50.3137 97.9925C49.7656 101.582 49.1318 106.038 48.5565 110.184C46.0747 110.466 43.5896 110.716 41.1024 110.943Z" fill="#1B2C3B"/>
<path id="path174" d="M50.3242 98.002C50.323 97.9887 50.3215 97.9754 50.3203 97.9622C50.695 95.5105 51.0293 93.4656 51.2774 92.2015C51.0297 93.4628 50.6967 95.5237 50.3242 98.002Z" fill="#171E24"/>
<path id="path176" d="M50.3188 97.9648C50.2593 97.3328 50.2124 96.8585 50.1812 96.5837C49.8626 93.7725 47.6621 80.5307 47.6621 80.5307L51.9121 69.7175L54.1357 69.2897C53.8518 72.1002 52.7991 82.3015 51.8452 88.7748C51.6486 90.1089 51.4564 91.284 51.2758 92.2041C51.0277 93.4682 50.6935 95.5131 50.3188 97.9648Z" fill="#19242E"/>
<path id="path178" d="M61.7923 106.618C61.7923 106.618 59.0168 107.66 54.5419 107.835C53.8344 107.863 53.0833 107.871 52.2929 107.848C45.4182 107.651 41.0496 108.482 38.8348 108.092C38.7364 108.074 38.6437 108.054 38.5566 108.033C38.5566 108.033 38.8362 77.5299 39.1509 73.5764C39.2385 72.4725 38.8096 64.3601 39.3605 57.2405C39.7076 52.8602 37.9814 45.6003 39.5625 42.3498C40.3078 40.8172 45.596 38.1754 45.596 38.1754C45.596 38.1754 48.9528 41.409 52.073 41.5825C54.981 41.7457 54.3501 38.5905 54.3501 38.5905L57.3098 41.536C57.3098 41.536 58.181 45.7628 58.4781 50.5055C58.6216 52.7876 59.079 57.287 59.0324 61.9186C59.3244 65.683 59.2895 72.1977 60.1614 80.4004C61.5078 93.0507 61.7923 106.618 61.7923 106.618Z" fill="#424EA9"/>
<g id="g180">
<g id="Clip path group_2">
<mask id="mask1_683_21138" style="mask-type:luminance" maskUnits="userSpaceOnUse" x="45" y="36" width="8" height="6">
<g id="clipPath186">
<path id="path184" d="M45.5957 38.1756C45.5957 38.1756 47.1329 39.8897 49.3041 40.9776C51.2377 41.9464 52.7378 41.7731 52.7378 41.7731L52.3328 40.093C52.3328 40.093 50.982 39.9457 49.1667 38.9424C47.3576 37.9426 46.2944 36.9385 46.2944 36.9385L45.5957 38.1756Z" fill="white"/>
</g>
</mask>
<g mask="url(#mask1_683_21138)">
<g id="g182">
<path id="path194" d="M45.5957 38.1756C45.5957 38.1756 47.1329 39.8897 49.3041 40.9776C51.2377 41.9464 52.7378 41.7731 52.7378 41.7731L52.3328 40.093C52.3328 40.093 50.982 39.9457 49.1667 38.9424C47.3576 37.9426 46.2944 36.9385 46.2944 36.9385L45.5957 38.1756Z" fill="url(#paint0_linear_683_21138)"/>
</g>
</g>
</g>
</g>
<g id="g196">
<g id="Clip path group_3">
<mask id="mask2_683_21138" style="mask-type:luminance" maskUnits="userSpaceOnUse" x="52" y="38" width="3" height="4">
<g id="clipPath202">
<path id="path200" d="M52.7402 41.7852L52.9744 39.968C52.9744 39.968 53.7709 38.8337 53.81 38.0186L54.7858 38.7324C54.7858 38.7324 55.132 39.6042 53.8915 41.0001C53.2943 41.6719 52.7402 41.7852 52.7402 41.7852Z" fill="white"/>
</g>
</mask>
<g mask="url(#mask2_683_21138)">
<g id="g198">
<path id="path210" d="M52.7402 41.7852L52.9744 39.968C52.9744 39.968 53.7709 38.8337 53.81 38.0186L54.7858 38.7324C54.7858 38.7324 55.132 39.6042 53.8915 41.0001C53.2943 41.6719 52.7402 41.7852 52.7402 41.7852Z" fill="url(#paint1_linear_683_21138)"/>
</g>
</g>
</g>
</g>
<path id="path212" d="M52.6156 41.7861L53.4182 50.4941L52.4277 50.7519L52.4877 50.9941L53.6807 50.6836L52.8586 41.7626L52.6156 41.7861Z" fill="#5369BB"/>
<path id="path214" d="M52.172 43.7925C52.184 44 52.0295 44.1782 51.8268 44.1907C51.6241 44.203 51.4501 44.0447 51.4382 43.837C51.426 43.6292 51.5806 43.4509 51.7834 43.4387C51.9859 43.4262 52.16 43.5847 52.172 43.7925Z" fill="#5369BB"/>
<path id="path216" d="M52.4415 48.4367C52.4535 48.6445 52.299 48.8228 52.0963 48.8353C51.8936 48.8475 51.7196 48.6893 51.7077 48.4815C51.6957 48.2737 51.8501 48.0955 52.0529 48.083C52.2554 48.0707 52.4295 48.2292 52.4415 48.4367Z" fill="#5369BB"/>
<path id="path218" d="M38.8359 108.091C39.1231 108.142 39.4485 108.171 39.8091 108.186C39.4378 108.065 39.1082 108.024 38.8359 108.091Z" fill="#2E3C9B"/>
<path id="path220" d="M54.2454 105.16C54.0174 91.6308 53.7868 78.1042 53.559 64.5773C53.365 75.8065 53.1781 90.6725 51.9564 101.821C51.8286 102.994 51.5219 105.448 51.127 107.825C51.5083 107.83 51.8959 107.837 52.294 107.848C53.0842 107.871 53.8356 107.863 54.5431 107.835C54.2825 106.989 54.2603 106.059 54.2454 105.16Z" fill="#2E3C9B"/>
<path id="path222" d="M54.2133 33.2872C54.227 33.5092 53.9793 34.418 53.1794 34.212C52.7264 34.0955 52.5195 33.4755 52.4922 33.2492C52.7422 33.6365 54.0286 33.791 54.2133 33.2872Z" fill="#452528"/>
<path id="path224" d="M53.6753 30.5264C53.8817 31.0425 54.0402 31.4443 54.1488 31.7516C54.2576 32.0583 54.3154 32.2726 54.3227 32.4031V32.4071L54.3025 32.4576C54.2766 32.4911 54.2159 32.5289 54.1385 32.5579C54.0229 32.6024 53.8738 32.6316 53.7555 32.6484C53.6962 32.6571 53.6443 32.6626 53.6074 32.6661C53.5706 32.6696 53.5494 32.6709 53.5494 32.6709C53.5113 32.6731 53.4823 32.7069 53.4845 32.7459C53.4867 32.7849 53.5196 32.8146 53.5577 32.8124C53.5596 32.8121 53.7714 32.7994 53.9878 32.7496C54.0963 32.7246 54.2059 32.6909 54.2944 32.6409C54.3388 32.6156 54.3784 32.5861 54.4093 32.5479C54.4401 32.5101 54.4613 32.4609 54.4611 32.4071L54.4608 32.3946C54.4508 32.2343 54.3888 32.0153 54.2791 31.7033C54.1688 31.3918 54.0097 30.989 53.8031 30.4727C53.7887 30.4364 53.7482 30.4192 53.7128 30.4342C53.6775 30.4489 53.6606 30.4904 53.6753 30.5264Z" fill="#F78E7B"/>
<path id="path226" d="M51.6768 30.233C51.6912 30.4773 51.8432 30.6663 52.0164 30.6558C52.1894 30.6451 52.3184 30.4386 52.3041 30.1945C52.2899 29.9505 52.1379 29.7613 51.9647 29.772C51.7915 29.7828 51.6627 29.989 51.6768 30.233Z" fill="#452528"/>
<path id="path228" d="M55.6353 32.0725C55.6353 32.0725 55.2797 32.2743 54.7891 32.2063C54.7891 32.2063 55.3009 32.8111 55.6353 32.0725Z" fill="#F6A56A"/>
<path id="path230" d="M52.3302 32.3932C52.3302 32.3932 51.9337 32.4865 51.4805 32.2822C51.4805 32.2822 51.8096 33.0085 52.3302 32.3932Z" fill="#F6A56A"/>
<path id="path232" d="M55.5433 28.3396C55.1727 28.1475 54.6021 28.0678 54.3047 28.2266C54.3047 28.2266 54.4825 28.5146 54.5682 28.5261C54.7262 28.5476 55.0949 28.4953 55.4196 28.6078C55.7138 28.7101 55.9765 28.9434 55.9765 28.9434C55.9289 28.6993 55.8145 28.4801 55.5433 28.3396Z" fill="#452528"/>
<path id="path234" d="M51.2312 28.1133C51.6825 27.999 52.3685 28.0123 52.7622 28.1208C52.7622 28.1208 52.5351 28.406 52.4319 28.416C52.2414 28.4348 51.6203 28.3748 51.2173 28.4418C50.8284 28.5063 50.5332 28.7676 50.5332 28.7676C50.6286 28.4643 50.936 28.188 51.2312 28.1133Z" fill="#452528"/>
<path id="path236" d="M54.9581 30.3309C54.9725 30.575 55.1245 30.7642 55.2977 30.7535C55.4709 30.743 55.5997 30.5365 55.5853 30.2924C55.5712 30.0484 55.4192 29.8591 55.246 29.8696C55.0728 29.8804 54.9439 30.0869 54.9581 30.3309Z" fill="#452528"/>
<path id="path238" d="M56.4071 48.1877C56.6825 48.53 61.4443 53.6896 57.1748 53.1703C55.5618 52.9743 55.172 51.1137 55.3259 50.0328C55.4879 48.8972 56.0292 47.7179 56.4071 48.1877Z" fill="#2E3C9B"/>
<path id="path240" d="M50.7989 51.0123C50.9362 51.5491 51.3475 53.3157 51.6964 53.3667C51.9747 53.407 51.8474 50.6945 51.5998 49.4809C51.3158 48.0896 50.7764 47.6705 50.5856 47.8378C50.1311 48.2371 50.52 49.925 50.7989 51.0123Z" fill="#2E3C9B"/>
<path id="path242" d="M54.622 40.1553C54.6749 40.1673 54.7076 40.1823 54.7076 40.1823C54.7076 40.1823 54.7457 39.792 54.9708 39.3807L54.9996 39.3287C55.3141 38.7144 55.59 39.005 55.59 39.005C55.59 39.005 55.5673 38.8847 55.6983 38.4147C55.8362 37.9256 56.185 37.7474 56.3202 37.8531C56.5346 38.0241 56.43 38.6974 56.43 38.6974C56.5263 38.4367 56.7378 38.3707 56.8947 38.5367C57.0172 38.6662 57.015 39.8438 56.9674 40.5458C56.9674 40.5458 57.1108 40.5403 57.2428 40.7321C57.4248 40.9951 57.3777 41.9227 57.3177 42.7208C57.267 43.4288 57.7398 44.5879 57.6134 45.0567C57.4856 45.521 57.2667 45.928 57.0169 46.3973C56.9147 46.5923 57.8039 47.9717 57.9298 48.1852C59.0208 49.7401 58.2489 52.8719 57.9322 52.8056C57.8629 52.6101 54.6993 48.6395 54.5183 48.2205C54.158 47.3869 53.7545 46.8694 53.6313 46.3196C53.5081 45.77 53.4369 43.4611 53.5686 42.621C53.6757 41.9727 53.9367 41.0924 54.0831 40.4941C54.1763 40.1051 54.4756 40.1233 54.622 40.1553Z" fill="#E39D75"/>
<path id="path244" d="M43.8711 52.2842C43.9872 53.9146 44.0584 55.5475 44.1482 57.1619C44.1509 57.2674 44.1533 57.3699 44.1614 57.4727C45.0557 57.0049 46.0345 56.4453 46.8339 55.8775C48.2347 54.8797 49.192 53.6618 50.6404 52.1017C51.1444 51.6069 53.4164 48.4014 53.7486 48.0796C54.4164 47.4443 55.015 47.2793 55.3448 46.8115C55.6774 46.3465 56.2314 44.0455 56.437 43.1992C56.5929 42.5447 56.6932 41.6066 56.7908 40.982C56.854 40.5793 56.5663 40.471 56.4161 40.4413C56.3607 40.4305 56.3263 40.4305 56.3263 40.4305C56.3263 40.4305 56.4424 40.0465 56.3924 39.5679L56.387 39.5057C56.358 39.1354 56.2446 39.0029 56.1389 38.9596C56.0757 38.9326 56.015 38.9406 55.9835 38.9489L55.9596 38.9569C55.9596 38.9569 55.9808 38.9244 56.0099 38.8136C56.023 38.7486 56.0362 38.6811 56.0494 38.6134L56.0521 38.5971L56.0704 38.4863L56.0889 38.3566C56.1523 37.8403 55.8938 37.5265 55.7249 37.5698C55.6274 37.5968 55.5454 37.6995 55.4768 37.824L55.4741 37.8348C55.3553 38.0511 55.2895 38.3188 55.2895 38.3188C55.2948 38.2106 55.2712 38.1213 55.2263 38.0566C55.1629 37.9538 55.0467 37.9185 54.9174 37.9753C54.7513 38.0483 54.3502 39.0056 54.1182 39.6869C53.9441 40.1925 53.7172 40.5548 53.6486 40.771L53.6301 40.763C53.6062 40.7548 53.5615 40.7388 53.5088 40.7333C53.4269 40.717 53.3188 40.7225 53.2212 40.7845C52.9468 40.955 52.915 41.0336 52.6591 41.8121C52.4269 42.4989 51.7462 43.3235 51.6804 43.8183C51.6196 44.3078 51.6645 44.7836 51.7148 45.3272C51.7621 45.8732 51.4772 46.8818 50.9127 47.5551V47.5578C49.335 48.8419 46.9183 50.3833 45.6783 51.1431C45.2563 51.4027 44.4173 51.7839 43.8711 52.2842Z" fill="#F7AF7A"/>
<path id="path246" d="M55.6523 43.4785C55.6865 43.4265 55.9053 43.0552 56.03 42.3147C56.14 41.6546 56.3537 40.8073 56.4164 40.4405C56.3618 40.4298 56.3252 40.4305 56.3252 40.4305C56.3252 40.4305 56.4425 40.0472 56.3928 39.5667L56.3859 39.5059C56.2769 39.9055 56.0546 41.3668 55.9297 42.0732C55.8126 42.7305 55.6699 43.3975 55.6523 43.4785Z" fill="#E38375"/>
<path id="path248" d="M54.9922 43.1055C54.9922 43.1055 55.3342 42.1261 55.4054 41.8826C55.5111 41.5203 56.0719 39.1801 56.1378 38.9586C56.0746 38.9316 56.0139 38.9396 55.9824 38.9479C55.8477 39.6129 54.9922 43.1055 54.9922 43.1055Z" fill="#E38375"/>
<path id="path250" d="M54.1719 42.8359C54.2273 42.6304 54.7732 40.7365 54.9923 39.955C55.2219 39.1304 55.2877 38.3273 55.4724 37.8325C55.3536 38.0488 55.2877 38.3166 55.2877 38.3166C55.2931 38.2083 55.2694 38.119 55.2246 38.0543C55.1692 38.3706 54.8025 39.9775 54.7208 40.3342C54.418 41.6543 54.2219 42.5712 54.1719 42.8359Z" fill="#E38375"/>
<path id="path252" d="M52.6367 43.6133C52.6367 43.6133 52.8133 43.2268 52.9082 42.9212C53.0034 42.6155 53.2856 41.9234 53.4491 41.3961C53.4889 41.2691 53.552 41.0366 53.6286 40.7608C53.6047 40.7525 53.5601 40.7365 53.5074 40.731C53.3464 41.4016 53.0112 42.3587 52.8529 42.6292C52.6526 42.9752 52.6367 43.6133 52.6367 43.6133Z" fill="#E38375"/>
<path id="path254" d="M39.5615 42.3484C41.1845 42.3484 43.4921 45.0404 43.102 48.4589C42.8507 50.6603 41.5153 54.8729 40.8144 57.0866C39.954 59.8036 38.8337 60.3982 38.8337 60.3982C38.8337 60.3982 34.3191 62.4723 34.8431 57.1591C35.0429 55.135 36.1036 50.4208 36.9841 48.1236C39.1348 42.5117 39.5615 42.3484 39.5615 42.3484Z" fill="#5369BB"/>
<path id="path256" d="M35.3911 60.1072C36.6531 61.802 41.865 60.5544 44.8644 58.8183C49.4527 56.1623 51.7162 53.4263 51.8047 53.3313C51.39 52.9763 50.7367 50.1841 50.5925 49.597C50.3537 48.6247 50.5876 47.8396 50.5876 47.8396C50.5876 47.8396 41.1163 52.7448 40.9877 52.8075C40.9845 52.8108 37.6047 53.8814 37.3845 54.6014C36.8373 56.3908 34.7683 59.2703 35.3911 60.1072Z" fill="#5369BB"/>
<path id="path258" d="M61.1002 58.0957C61.4149 57.4734 61.6893 56.8303 61.9018 56.162C62.5007 54.2781 62.6183 52.119 61.862 50.2671C59.8906 49.145 57.9656 48.0426 57.522 47.5206C57.522 47.5206 58.4762 48.7804 58.1029 50.229C57.2932 53.3693 55.6797 52.107 55.6797 52.107C55.9566 52.5795 56.3403 53.4708 58.7796 55.7833C59.3812 56.3538 60.2261 57.2436 61.1002 58.0957Z" fill="#5369BB"/>
<path id="path260" d="M54.1719 40.2769C54.2009 40.2849 54.222 40.2984 54.2327 40.3066C54.2195 40.3039 54.1956 40.2931 54.1719 40.2769Z" fill="#E38375"/>
<path id="path262" d="M42.2765 52.0019C42.2707 52.0034 41.218 52.2614 39.9899 52.8895C38.7628 53.518 37.3542 54.5159 36.6543 56.0175L36.8746 56.125C37.5338 54.7041 38.8955 53.7278 40.0987 53.1132C40.6998 52.8057 41.26 52.5882 41.6691 52.4479C41.8735 52.3777 42.0404 52.3269 42.1555 52.2937C42.2131 52.2769 42.258 52.2647 42.2882 52.2567C42.3182 52.2487 42.3331 52.2452 42.3331 52.2449L42.2765 52.0019Z" fill="#424EA9"/>
<path id="path264" d="M57.4414 47.6153C57.4414 47.6156 58.2935 48.3709 59.2789 49.225C60.265 50.0793 61.3808 51.0304 61.9195 51.4299C62.4154 51.7939 62.8782 52.6085 63.2012 53.3281C63.3637 53.6878 63.494 54.0241 63.583 54.2699C63.6277 54.3929 63.6621 54.4934 63.6852 54.5627C63.7084 54.6322 63.7201 54.6697 63.7201 54.6699L63.9526 54.5939C63.9516 54.5907 63.7545 53.9581 63.4227 53.223C63.0885 52.4877 62.6287 51.6504 62.0624 51.2271C61.5389 50.8394 60.4199 49.8865 59.4365 49.034C58.9444 48.6074 58.4855 48.2054 58.1496 47.9101C57.8137 47.6148 57.6014 47.4268 57.601 47.4263L57.4414 47.6153Z" fill="#424EA9"/>
</g>
</g>
<defs>
<linearGradient id="paint0_linear_683_21138" x1="45.5484" y1="39.1749" x2="52.8442" y2="39.5197" gradientUnits="userSpaceOnUse">
<stop stop-color="#EFF1F0"/>
<stop offset="1" stop-color="#DCDBDC"/>
</linearGradient>
<linearGradient id="paint1_linear_683_21138" x1="52.8303" y1="39.8797" x2="54.7884" y2="39.9723" gradientUnits="userSpaceOnUse">
<stop stop-color="#EFF1F0"/>
<stop offset="1" stop-color="#DCDBDC"/>
</linearGradient>
</defs>
</svg>
