<svg width="14" height="14" viewBox="0 0 14 14" fill="none" xmlns="http://www.w3.org/2000/svg">
<path d="M7.43408 1C4.98979 1 3 2.95882 3 5.36741C3 7.50128 4.56577 9.28249 6.61521 9.66134V10.9813H5.45336C5.04296 10.9813 4.711 11.3097 4.711 11.7134C4.711 12.1172 5.04296 12.4456 5.45336 12.4456H6.61521V13.2678C6.61521 13.6723 6.94846 14 7.35887 14C7.76927 14 8.10318 13.671 8.10318 13.2678V12.4456H9.32337C9.73378 12.4456 10.0664 12.1159 10.0664 11.7134C10.0664 11.3077 9.73378 10.9813 9.32337 10.9813H8.10318V9.68498C10.2369 9.36554 11.8656 7.55111 11.8656 5.36741C11.8656 2.95882 9.87836 1 7.43408 1ZM7.43408 8.26986C5.80866 8.26986 4.48732 6.96717 4.48732 5.36613C4.48732 3.76509 5.80866 2.4624 7.43408 2.4624C9.0582 2.4624 10.3802 3.76509 10.3802 5.36613C10.3802 6.96717 9.05885 8.26986 7.43408 8.26986Z" fill="#2F90EC"/>
</svg>
