<svg width="22" height="22" viewBox="0 0 22 22" fill="none" xmlns="http://www.w3.org/2000/svg">
<path d="M21.7833 11.2527C21.7833 10.505 21.7227 9.7532 21.5933 9.01758H11.2178V13.2535H17.1594C16.9128 14.6196 16.1206 15.8282 14.9606 16.5961V19.3446H18.5053C20.5869 17.4287 21.7833 14.5994 21.7833 11.2527Z" fill="#4285F4"/>
<path d="M11.2176 22.0006C14.1843 22.0006 16.6862 21.0265 18.5091 19.345L14.9644 16.5965C13.9782 17.2675 12.705 17.6474 11.2216 17.6474C8.35187 17.6474 5.91865 15.7114 5.0456 13.1084H1.3877V15.9418C3.25505 19.6563 7.05847 22.0006 11.2176 22.0006Z" fill="#34A853"/>
<path d="M5.04177 13.1085C4.58099 11.7423 4.58099 10.263 5.04177 8.89684V6.06348H1.3879C-0.172269 9.17169 -0.172269 12.8336 1.3879 15.9418L5.04177 13.1085Z" fill="#FBBC04"/>
<path d="M11.2176 4.35386C12.7858 4.3296 14.3015 4.91972 15.4373 6.00295L18.5778 2.8624C16.5892 0.995046 13.9499 -0.0315938 11.2176 0.000741277C7.05847 0.000741277 3.25505 2.34504 1.3877 6.06357L5.04156 8.89694C5.91057 6.28992 8.34783 4.35386 11.2176 4.35386Z" fill="#EA4335"/>
</svg>
