<svg width="26" height="23" viewBox="0 0 26 23" fill="none" xmlns="http://www.w3.org/2000/svg">
<path d="M14.022 2.55982L12.9964 3.5877L11.9674 2.5589C9.34414 -0.0642694 5.09085 -0.0642694 2.46751 2.5589C-0.155837 5.18205 -0.155837 9.43504 2.46751 12.0582L12.3349 21.9249C12.7009 22.2909 13.2944 22.2909 13.6605 21.9249L23.5354 12.0564C26.1529 9.42455 26.1574 5.18347 23.5336 2.55982C20.9055 -0.0681183 16.6502 -0.0681183 14.022 2.55982ZM22.2061 10.7346L12.9976 19.9367L3.79309 10.7327C1.90183 8.84157 1.90183 5.7755 3.79309 3.88439C5.68434 1.99326 8.75065 1.99326 10.6419 3.88439L12.3384 5.58075C12.7107 5.953 13.3164 5.94573 13.6796 5.56469L15.3477 3.88531C17.2437 1.98942 20.312 1.98942 22.208 3.88531C24.0998 5.77689 24.0965 8.83395 22.2061 10.7346Z" fill="#252727" fill-opacity="0.78"/>
</svg>
