<svg width="20" height="20" viewBox="0 0 42 34" fill="none" xmlns="http://www.w3.org/2000/svg">
<path d="M4.83712 0.000528236C5.17801 0.0101699 5.50165 0.148179 5.73952 0.385338L38.1165 31.8071C38.2425 31.9244 38.3431 32.065 38.4124 32.2206C38.4817 32.3762 38.5183 32.5436 38.52 32.7131C38.5218 32.8825 38.4887 33.0507 38.4227 33.2076C38.3567 33.3645 38.2591 33.507 38.1356 33.6269C38.0121 33.7467 37.8652 33.8414 37.7036 33.9055C37.5419 33.9696 37.3687 34.0017 37.194 33.9999C37.0194 33.9982 36.8469 33.9627 36.6866 33.8955C36.5263 33.8282 36.3814 33.7306 36.2605 33.6084L27.1989 24.8141C25.6512 26.4397 23.4499 27.468 21 27.468C16.336 27.468 12.5383 23.7822 12.5383 19.2642C12.5383 16.8865 13.5977 14.7439 15.2728 13.24L11.3283 9.41178C7.08272 11.8243 3.78871 15.7203 2.57941 20.2827C2.43065 20.8601 1.89755 21.243 1.31127 21.243C1.20626 21.243 1.09326 21.2339 0.988249 21.1999C0.279455 21.0301 -0.14064 20.3351 0.0431218 19.6557C1.39057 14.5581 4.84541 10.265 9.3816 7.52256L3.88345 2.18665C3.69409 2.00767 3.56481 1.77737 3.51254 1.52591C3.46027 1.27445 3.48744 1.01353 3.59049 0.777296C3.69354 0.541066 3.86768 0.340531 4.09011 0.201936C4.31254 0.0633414 4.5729 -0.0068569 4.83712 0.000528236ZM21.0085 4.25832C30.7829 4.25832 39.5942 10.7302 41.9569 19.6557C42.1406 20.3351 41.7205 21.0301 41.0117 21.1999C40.3117 21.3782 39.5956 20.9705 39.4206 20.2827C37.3817 12.5971 29.4616 6.80602 21.0085 6.80602C19.5122 6.80602 18.034 6.98363 16.6076 7.33182L14.4542 5.24356C16.5456 4.59814 18.7509 4.25832 21.0085 4.25832ZM21 11.0522C25.664 11.0522 29.4532 14.7378 29.4532 19.2642C29.4532 19.4341 29.4448 19.6119 29.4361 19.7817L26.1187 16.5639C25.5849 15.6043 24.7627 14.8063 23.7739 14.2883L20.4582 11.0688C20.642 11.0603 20.8162 11.0522 21 11.0522ZM17.1272 15.0396C15.9278 16.0767 15.1635 17.5807 15.1635 19.2642C15.1635 22.3809 17.7798 24.9203 21 24.9203C22.7279 24.9203 24.2762 24.1785 25.3445 23.0145L17.1272 15.0396Z" fill="#404040"/>
</svg>
