<svg width="55" height="55" viewBox="0 0 85 85" fill="none" xmlns="http://www.w3.org/2000/svg">
<path d="M84.6584 44.6979C84.5785 45.5651 84.4721 46.4327 84.339 47.2928C84.339 47.3233 84.3323 47.3534 84.3257 47.3764H84.3323C84.2125 48.1373 84.0794 48.8982 83.9264 49.6514C83.1943 53.281 82.0431 56.8649 80.4659 60.2664C74.5298 73.0727 62.7507 82.8124 50.6988 84.6615C49.4876 84.8365 48.2898 84.9506 47.1052 84.9889H46.9921C46.4597 85.0037 45.934 85.0037 45.4149 84.9889C41.8413 84.9127 38.3608 84.1975 35.0533 82.9721C33.2166 82.2952 31.4264 81.4581 29.6962 80.4839C28.7845 79.9819 27.8927 79.4339 27.0209 78.8554C24.166 76.9687 21.5041 74.7164 19.0951 72.213C18.8888 72.0071 18.6891 71.7942 18.4895 71.5813C18.4029 71.4825 18.3098 71.3911 18.2233 71.2923C15.9074 68.7888 13.658 66.11 11.5751 63.2565C2.23838 50.481 -3.73764 34.3341 2.67092 15.7829C5.52587 7.52687 12.5534 -0.112802 19.9335 0.00126133H20.0201C23.4872 0.0774278 26.4886 1.78207 29.5564 3.32657H29.5698C30.3417 3.72227 31.107 4.10273 31.8989 4.44529C32.4113 4.65819 32.9238 4.86365 33.4429 5.03865C33.5294 5.06168 33.6092 5.09215 33.6824 5.12225C34.1549 5.27458 34.6141 5.40388 35.0933 5.51051C35.7654 5.66284 36.4508 5.7691 37.1363 5.82261C37.2028 5.83004 37.2627 5.83004 37.3293 5.83747H37.3359C41.8013 6.19526 46.5196 4.89412 51.1181 4.55936C55.67 4.23203 60.1287 4.93202 64.2481 6.53002C71.0027 9.15535 76.8057 14.1927 80.4592 21.0485C84.0661 27.8284 85.4836 36.2438 84.6584 44.6979Z" fill="url(#paint0_linear_109_2064)"/>
<path d="M20.0169 0.00195312C19.4071 15.6739 19.2595 31.362 20.8264 46.9303C21.9169 57.7503 23.8934 68.5701 27.0222 78.8565C32.5467 82.5266 38.809 84.841 45.4146 84.9879C46.6195 80.5172 47.7959 76.0356 48.9578 71.5487C54.3392 50.7148 59.2874 29.7339 63.7973 8.63312C63.9498 7.93596 64.0974 7.23362 64.2451 6.53101C60.1304 4.93011 55.668 4.22763 51.1151 4.55441C46.4528 4.89747 41.6572 6.23149 37.1328 5.81764C36.447 5.76313 35.766 5.65977 35.0898 5.50721C34.6134 5.39853 34.1517 5.2731 33.6848 5.12061C33.6088 5.08791 33.5275 5.06092 33.4419 5.03905C32.9229 4.85931 32.4132 4.65784 31.8989 4.43994C27.9698 2.74664 24.36 0.100132 20.0169 0.00195312Z" fill="url(#paint1_linear_109_2064)"/>
<path d="M82.7635 50.168H35.6862C34.4513 50.168 33.4502 49.0233 33.4502 47.6113V3.28719C33.4502 1.87515 34.4513 0.730469 35.6862 0.730469H82.7635C83.9984 0.730469 84.9995 1.87515 84.9995 3.28719V47.6113C84.9995 49.0233 83.9984 50.168 82.7635 50.168Z" fill="url(#paint2_linear_109_2064)"/>
<path d="M82.2568 3.86914V47.0324H36.1948V3.86914H82.2568Z" fill="white"/>
<path d="M68.7698 54.6249L58.0802 65.4379C55.4699 68.0975 51.5392 68.1309 48.8946 65.5158L46.5029 63.1508L47.1051 46.6797H48.8812C49.9199 46.6797 50.9283 47.0843 51.7412 47.8331L55.6322 53.4158L63.4388 46.8799L68.7698 54.6249Z" fill="url(#paint3_linear_109_2064)"/>
<path d="M46.6287 27.122C46.6287 29.277 45.0922 31.0409 43.2012 31.0409V27.4776H43.5122L43.506 23.2242C43.5184 23.2169 43.5309 23.2169 43.5371 23.2242C44.4888 23.3308 45.3224 23.8785 45.8822 24.6895C46.3488 25.3507 46.6287 26.2044 46.6287 27.122Z" fill="url(#paint4_linear_109_2064)"/>
<path d="M43.5139 27.4761H43.2029V23.2012C43.3086 23.2012 43.4082 23.2085 43.5077 23.2227L43.5139 27.4761Z" fill="url(#paint5_linear_109_2064)"/>
<path d="M17.9814 27.1211C17.9814 29.2752 19.5141 31.0372 21.4063 31.0372V23.2051C19.5141 23.2051 17.9814 24.9576 17.9814 27.1211Z" fill="url(#paint6_linear_109_2064)"/>
<path d="M47.1053 46.6836V84.9886H45.415C41.8414 84.9124 38.3609 84.1972 35.0534 82.9719C33.2167 82.2949 31.4266 81.4578 29.6963 80.4836C28.7846 79.9817 27.8928 79.4337 27.0211 78.8552C24.1662 76.9685 21.5042 74.7162 19.0952 72.2127C18.8889 72.0069 18.6892 71.794 18.4896 71.5811C18.4031 71.4823 18.3099 71.3909 18.2234 71.292C15.9075 68.7886 13.6582 66.1097 11.5752 63.2563V55.1069C11.5752 50.4503 14.876 46.6836 18.9421 46.6836H47.1053Z" fill="url(#paint7_linear_109_2064)"/>
<path d="M19.0944 62.8305V72.2127C18.8881 72.0068 18.6885 71.7939 18.4888 71.581C18.4023 71.4822 18.3091 71.3908 18.2227 71.292V62.8305C18.2227 62.5488 18.4156 62.3281 18.6552 62.3281C18.8948 62.3281 19.0944 62.5488 19.0944 62.8305Z" fill="url(#paint8_linear_109_2064)"/>
<path d="M35.0534 82.9697C33.2167 82.2928 31.4265 81.4557 29.6963 80.4815L31.0938 56.68L31.1936 54.9375H33.4163L33.5162 56.6875L35.0534 82.9697Z" fill="url(#paint9_linear_109_2064)"/>
<path d="M38.8357 50.8125L32.8572 57.4191C32.5504 57.7556 32.0684 57.7556 31.7616 57.4191L25.7705 50.8125H38.8357Z" fill="url(#paint10_linear_109_2064)"/>
<path d="M37.9388 46.6838L32.3048 50.923L26.6709 46.6838L28.3662 40.4082H36.2435L37.9388 46.6838Z" fill="url(#paint11_linear_109_2064)"/>
<path d="M37.9367 46.6855H42.0958L40.1927 54.1201C40.0146 54.8159 39.3238 55.1507 38.7627 54.8132L32.3027 50.9279L37.9367 46.6855Z" fill="url(#paint12_linear_109_2064)"/>
<path d="M26.6688 46.6855H22.5098L24.4128 54.1201C24.5909 54.8159 25.2817 55.1507 25.8429 54.8132L32.3028 50.9279L26.6688 46.6855Z" fill="url(#paint13_linear_109_2064)"/>
<path d="M43.5116 23.5202V29.8743C43.5116 36.9425 38.4941 42.6894 32.3036 42.6894C26.1131 42.6894 21.0957 36.9425 21.0957 29.8743V23.5202C21.0957 16.452 26.1131 10.7051 32.3036 10.7051C35.3946 10.7051 38.1944 12.144 40.2322 14.4548C41.3282 15.7077 42.193 17.2154 42.7581 18.8995C43.2462 20.3384 43.5116 21.8954 43.5116 23.5202Z" fill="url(#paint14_linear_109_2064)"/>
<path d="M45.8966 24.6959L45.8841 24.689C45.3243 23.878 44.4907 23.3303 43.539 23.2237L43.5079 23.2022V23.2237L43.5141 27.4771H42.1456L41.9776 22.2065C39.8502 21.8508 39.6698 15.805 39.6698 15.805C38.8927 18.7903 30.3946 20.379 25.5938 21.0439C23.7469 21.2997 22.3787 23.1229 22.4292 25.2493L22.4636 26.7016H21.0951V23.5578C21.0951 23.5578 20.9831 23.4581 20.809 23.2664C19.5586 21.929 13.3436 12.9096 21.0971 6.67708C32.305 -2.33233 41.6417 9.69998 41.6417 9.69998C51.9575 9.46289 45.8966 24.6959 45.8966 24.6959Z" fill="url(#paint15_linear_109_2064)"/>
<path d="M28.54 33.7441C28.795 35.8629 30.3804 37.4965 32.3034 37.4965C34.2264 37.4965 35.8119 35.8629 36.0668 33.7441H28.54Z" fill="white"/>
<path d="M71.0096 49.9102C71.6286 50.8462 71.4822 52.1778 70.6769 52.9082L68.767 54.6203L63.4364 46.8818L63.3899 44.1729C63.3766 43.4346 63.8956 42.826 64.5412 42.826C65.1734 42.826 65.6924 43.4194 65.6924 44.1424V44.8576L69.7319 40.0562C70.1578 39.5464 70.8766 39.5386 71.3158 40.0484C71.5287 40.2921 71.6286 40.6116 71.6286 40.9312C71.6286 41.2507 71.5287 41.5628 71.3224 41.8065L68.1348 45.5881L71.0096 49.9102Z" fill="url(#paint16_linear_109_2064)"/>
<defs>
<linearGradient id="paint0_linear_109_2064" x1="47.931" y1="45.6708" x2="33.921" y2="27.6376" gradientUnits="userSpaceOnUse">
<stop stop-color="#E8EFFB"/>
<stop offset="1" stop-color="#ADC1E7"/>
</linearGradient>
<linearGradient id="paint1_linear_109_2064" x1="36.5453" y1="33.5776" x2="41.8268" y2="37.6294" gradientUnits="userSpaceOnUse">
<stop stop-color="#E8EFFB"/>
<stop offset="1" stop-color="#ADC1E7"/>
</linearGradient>
<linearGradient id="paint2_linear_109_2064" x1="55.9097" y1="30.7642" x2="38.2212" y2="52.4587" gradientUnits="userSpaceOnUse">
<stop stop-color="#63B1FF"/>
<stop offset="1" stop-color="#4EA3EA"/>
</linearGradient>
<linearGradient id="paint3_linear_109_2064" x1="55.0741" y1="55.148" x2="66.0358" y2="65.8622" gradientUnits="userSpaceOnUse">
<stop stop-color="#083F9E"/>
<stop offset="1" stop-color="#053477"/>
</linearGradient>
<linearGradient id="paint4_linear_109_2064" x1="43.201" y1="27.1302" x2="46.6289" y2="27.1302" gradientUnits="userSpaceOnUse">
<stop stop-color="#F8A695"/>
<stop offset="1" stop-color="#FA8D77"/>
</linearGradient>
<linearGradient id="paint5_linear_109_2064" x1="43.2027" y1="25.339" x2="43.5141" y2="25.339" gradientUnits="userSpaceOnUse">
<stop stop-color="#F8A695"/>
<stop offset="1" stop-color="#FA8D77"/>
</linearGradient>
<linearGradient id="paint6_linear_109_2064" x1="17.9813" y1="27.1208" x2="21.4066" y2="27.1208" gradientUnits="userSpaceOnUse">
<stop stop-color="#F8A695"/>
<stop offset="1" stop-color="#FA8D77"/>
</linearGradient>
<linearGradient id="paint7_linear_109_2064" x1="29.3402" y1="68.8763" x2="29.3402" y2="100.49" gradientUnits="userSpaceOnUse">
<stop stop-color="#083F9E"/>
<stop offset="1" stop-color="#053477"/>
</linearGradient>
<linearGradient id="paint8_linear_109_2064" x1="18.2226" y1="67.2707" x2="19.0943" y2="67.2707" gradientUnits="userSpaceOnUse">
<stop stop-color="#213661"/>
<stop offset="1" stop-color="#081E4B"/>
</linearGradient>
<linearGradient id="paint9_linear_109_2064" x1="32.629" y1="67.8682" x2="31.9478" y2="96.281" gradientUnits="userSpaceOnUse">
<stop stop-color="#FFD46A"/>
<stop offset="1" stop-color="#F4883B"/>
</linearGradient>
<linearGradient id="paint10_linear_109_2064" x1="32.3034" y1="52.2211" x2="32.3034" y2="56.6656" gradientUnits="userSpaceOnUse">
<stop stop-color="#FFD46A"/>
<stop offset="1" stop-color="#F4883B"/>
</linearGradient>
<linearGradient id="paint11_linear_109_2064" x1="32.3048" y1="43.9914" x2="32.3048" y2="49.9068" gradientUnits="userSpaceOnUse">
<stop stop-color="#F8A695"/>
<stop offset="1" stop-color="#FA8D77"/>
</linearGradient>
<linearGradient id="paint12_linear_109_2064" x1="38.702" y1="50.7272" x2="42.8874" y2="54.8189" gradientUnits="userSpaceOnUse">
<stop stop-color="#E8EFFB"/>
<stop offset="1" stop-color="#ADC1E7"/>
</linearGradient>
<linearGradient id="paint13_linear_109_2064" x1="26.7699" y1="49.7198" x2="23.8326" y2="52.9448" gradientUnits="userSpaceOnUse">
<stop stop-color="#E8EFFB"/>
<stop offset="1" stop-color="#ADC1E7"/>
</linearGradient>
<linearGradient id="paint14_linear_109_2064" x1="32.3036" y1="22.4535" x2="32.3036" y2="36.5762" gradientUnits="userSpaceOnUse">
<stop stop-color="#F8A695"/>
<stop offset="1" stop-color="#FA8D77"/>
</linearGradient>
<linearGradient id="paint15_linear_109_2064" x1="17.2684" y1="15.4039" x2="47.6656" y2="15.4039" gradientUnits="userSpaceOnUse">
<stop stop-color="#213661"/>
<stop offset="1" stop-color="#081E4B"/>
</linearGradient>
<linearGradient id="paint16_linear_109_2064" x1="65.4422" y1="41.4552" x2="73.8466" y2="49.6704" gradientUnits="userSpaceOnUse">
<stop stop-color="#F8A695"/>
<stop offset="1" stop-color="#FA8D77"/>
</linearGradient>
</defs>
</svg>
