<svg width="24" height="24" viewBox="0 0 24 24" fill="none" xmlns="http://www.w3.org/2000/svg">
<g id="icons">
<path id="Vector" d="M11.9996 1.99805C17.5233 1.99805 22.0011 6.47589 22.0011 11.9996C22.0011 17.5233 17.5233 22.0011 11.9996 22.0011C6.47589 22.0011 1.99805 17.5233 1.99805 11.9996C1.99805 6.47589 6.47589 1.99805 11.9996 1.99805ZM11.9996 3.49805C7.30432 3.49805 3.49805 7.30432 3.49805 11.9996C3.49805 16.6949 7.30432 20.5011 11.9996 20.5011C16.6949 20.5011 20.5011 16.6949 20.5011 11.9996C20.5011 7.30432 16.6949 3.49805 11.9996 3.49805ZM11.9959 10.4986C12.3756 10.4984 12.6896 10.7803 12.7395 11.1464L12.7464 11.2481L12.75 16.7497C12.7503 17.1639 12.4147 17.5 12.0005 17.5002C11.6208 17.5005 11.3068 17.2185 11.2569 16.8525L11.25 16.7507L11.2464 11.2491C11.2462 10.8349 11.5817 10.4989 11.9959 10.4986ZM12 7.00086C12.5516 7.00086 12.9987 7.44798 12.9987 7.99953C12.9987 8.55107 12.5516 8.99819 12 8.99819C11.4485 8.99819 11.0014 8.55107 11.0014 7.99953C11.0014 7.44798 11.4485 7.00086 12 7.00086Z" fill="#404040"/>
</g>
</svg>
