<svg width="34" height="34" viewBox="0 0 34 34" fill="none" xmlns="http://www.w3.org/2000/svg">
<path d="M12.5312 18.375C14.2399 18.375 15.625 19.7602 15.625 21.4688V26.2812C15.625 27.9898 14.2399 29.375 12.5312 29.375H7.71875C6.01012 29.375 4.625 27.9898 4.625 26.2812V21.4688C4.625 19.7602 6.01012 18.375 7.71875 18.375H12.5312ZM26.2812 18.375C27.9898 18.375 29.375 19.7602 29.375 21.4688V26.2812C29.375 27.9898 27.9898 29.375 26.2812 29.375H21.4688C19.7602 29.375 18.375 27.9898 18.375 26.2812V21.4688C18.375 19.7602 19.7602 18.375 21.4688 18.375H26.2812ZM12.5312 20.4375H7.71875C7.14921 20.4375 6.6875 20.8992 6.6875 21.4688V26.2812C6.6875 26.8508 7.14921 27.3125 7.71875 27.3125H12.5312C13.1008 27.3125 13.5625 26.8508 13.5625 26.2812V21.4688C13.5625 20.8992 13.1008 20.4375 12.5312 20.4375ZM26.2812 20.4375H21.4688C20.8992 20.4375 20.4375 20.8992 20.4375 21.4688V26.2812C20.4375 26.8508 20.8992 27.3125 21.4688 27.3125H26.2812C26.8508 27.3125 27.3125 26.8508 27.3125 26.2812V21.4688C27.3125 20.8992 26.8508 20.4375 26.2812 20.4375ZM12.5312 4.625C14.2399 4.625 15.625 6.01012 15.625 7.71875V12.5312C15.625 14.2399 14.2399 15.625 12.5312 15.625H7.71875C6.01012 15.625 4.625 14.2399 4.625 12.5312V7.71875C4.625 6.01012 6.01012 4.625 7.71875 4.625H12.5312ZM26.2812 4.625C27.9898 4.625 29.375 6.01012 29.375 7.71875V12.5312C29.375 14.2399 27.9898 15.625 26.2812 15.625H21.4688C19.7602 15.625 18.375 14.2399 18.375 12.5312V7.71875C18.375 6.01012 19.7602 4.625 21.4688 4.625H26.2812ZM12.5312 6.6875H7.71875C7.14921 6.6875 6.6875 7.14921 6.6875 7.71875V12.5312C6.6875 13.1008 7.14921 13.5625 7.71875 13.5625H12.5312C13.1008 13.5625 13.5625 13.1008 13.5625 12.5312V7.71875C13.5625 7.14921 13.1008 6.6875 12.5312 6.6875ZM26.2812 6.6875H21.4688C20.8992 6.6875 20.4375 7.14921 20.4375 7.71875V12.5312C20.4375 13.1008 20.8992 13.5625 21.4688 13.5625H26.2812C26.8508 13.5625 27.3125 13.1008 27.3125 12.5312V7.71875C27.3125 7.14921 26.8508 6.6875 26.2812 6.6875Z" fill="#404040"/>
</svg>
