<svg width="24" height="24" viewBox="0 0 24 24" fill="none" xmlns="http://www.w3.org/2000/svg">
<g id="icons">
<path id="Vector" d="M7.40232 4C7.07087 4 6.80218 4.2687 6.80218 4.60014V4.85075C5.20945 5.13359 4 6.52507 4 8.19904V8.63242C4 10.0858 4.82876 11.4119 6.1351 12.0488L6.80218 12.3741V17.9019C5.87826 17.6413 5.20028 16.792 5.20028 15.7837V14.9989C5.20028 14.6675 4.93159 14.3987 4.60014 14.3987C4.2687 14.3987 4 14.6675 4 14.9989V15.7837C4 17.4586 5.21039 18.8494 6.80218 19.132V19.3999C6.80218 19.7313 7.07087 20 7.40232 20C7.73377 20 8.00246 19.7313 8.00246 19.3999V19.1315C9.59465 18.8472 10.8016 17.4557 10.8016 15.7837V15.3642C10.8016 13.9109 9.97284 12.5847 8.66651 11.9478L8.00246 11.624V6.08179C8.92531 6.34352 9.60131 7.19233 9.60131 8.19904V9.00028C9.60131 9.33174 9.87 9.60043 10.2015 9.60043C10.5329 9.60043 10.8016 9.33174 10.8016 9.00028V8.19904C10.8016 6.52614 9.5937 5.13537 8.00246 4.8513V4.60014C8.00246 4.2687 7.73377 4 7.40232 4ZM5.20028 8.19904C5.20028 7.19123 5.87778 6.34166 6.80218 6.08093V11.0388L6.66114 10.97C5.76733 10.5342 5.20028 9.62682 5.20028 8.63242V8.19904ZM8.00246 17.9009V12.9594L8.14046 13.0267C9.03427 13.4624 9.60131 14.3698 9.60132 15.3642V15.7837C9.60132 16.79 8.92579 17.6391 8.00246 17.9009ZM14.0024 11.9999C14.0024 11.8651 14.0053 11.7315 14.0113 11.5991L15.4013 11.5998C15.7327 11.6001 16.0016 11.3315 16.0017 11C16.002 10.6686 15.7334 10.3998 15.4019 10.3996L14.1482 10.3989C14.3457 9.34059 14.7326 8.40625 15.2422 7.6751C15.9979 6.59086 16.9836 5.99852 18.0033 5.99852C18.3769 5.99852 18.782 6.10754 19.0734 6.29961C19.3502 6.48198 19.7225 6.40545 19.9048 6.12868C20.0872 5.85191 20.0106 5.47971 19.7339 5.29734C19.2189 4.95804 18.5765 4.79824 18.0033 4.79824C16.482 4.79824 15.1671 5.6837 14.2575 6.98878C13.6056 7.9242 13.1414 9.0985 12.93 10.3982L11.8023 10.3976C11.4709 10.3974 11.202 10.6659 11.2019 10.9974C11.2017 11.3288 11.4703 11.5977 11.8017 11.5978L12.81 11.5984C12.8047 11.7315 12.8021 11.8653 12.8021 11.9999C12.8021 12.1341 12.8047 12.2675 12.8099 12.4001L11.802 12.4C11.4706 12.4 11.2019 12.6687 11.2019 13.0002C11.2019 13.3317 11.4706 13.6003 11.802 13.6003L12.9299 13.6004C13.1411 14.9006 13.6053 16.0754 14.2575 17.0111C15.1671 18.3162 16.482 19.2017 18.0033 19.2017C18.5598 19.2017 19.2176 19.0672 19.7495 18.6972C20.0216 18.508 20.0887 18.1339 19.8995 17.8618C19.7101 17.5897 19.3361 17.5226 19.0641 17.7119C18.7895 17.9029 18.3936 18.0014 18.0033 18.0014C16.9836 18.0014 15.9979 17.4091 15.2422 16.3248C14.7325 15.5935 14.3455 14.659 14.1481 13.6004H15.4016C15.7331 13.6004 16.0017 13.3317 16.0017 13.0003C16.0017 12.6688 15.7331 12.4001 15.4016 12.4001H14.0113C14.0053 12.2679 14.0024 12.1345 14.0024 11.9999Z" fill="#404040"/>
</g>
</svg>
