<svg width="148" height="29" viewBox="0 0 148 29" fill="none" xmlns="http://www.w3.org/2000/svg">
<path d="M0.516 3.7H6.364V27.5H0.516V3.7ZM63.5507 15.6C63.5507 17.0507 63.8793 18.3087 64.5367 19.374C65.194 20.4167 66.0553 21.21 67.1207 21.754C68.2087 22.298 69.3987 22.57 70.6907 22.57C71.824 22.57 72.8213 22.4227 73.6827 22.128C74.544 21.8333 75.3147 21.448 75.9947 20.972C76.6747 20.496 77.2753 19.986 77.7967 19.442V25.63C76.8447 26.378 75.802 26.9673 74.6687 27.398C73.5353 27.8287 72.096 28.044 70.3507 28.044C68.4467 28.044 66.69 27.7493 65.0807 27.16C63.4713 26.5707 62.0887 25.7207 60.9327 24.61C59.7767 23.4993 58.8813 22.1847 58.2467 20.666C57.612 19.1473 57.2947 17.4587 57.2947 15.6C57.2947 13.7413 57.612 12.0527 58.2467 10.534C58.8813 9.01533 59.7767 7.70067 60.9327 6.59C62.0887 5.47933 63.4713 4.62933 65.0807 4.04C66.69 3.45067 68.4467 3.156 70.3507 3.156C72.096 3.156 73.5353 3.37133 74.6687 3.802C75.802 4.23267 76.8447 4.822 77.7967 5.57V11.758C77.2753 11.214 76.6747 10.704 75.9947 10.228C75.3147 9.72933 74.544 9.344 73.6827 9.072C72.8213 8.77733 71.824 8.63 70.6907 8.63C69.3987 8.63 68.2087 8.902 67.1207 9.446C66.0553 9.99 65.194 10.7833 64.5367 11.826C63.8793 12.8687 63.5507 14.1267 63.5507 15.6Z" fill="#FF8E00"/>
<path d="M10.8966 0.979999H16.0646V27.5H10.8966V0.979999ZM43.9287 17.436V27.5H38.7607V17.98C38.7607 17.028 38.602 16.314 38.2847 15.838C37.99 15.3393 37.4914 15.09 36.7887 15.09C36.3354 15.09 35.9274 15.2033 35.5647 15.43C35.2247 15.634 34.9527 15.9513 34.7487 16.382C34.5674 16.8127 34.4767 17.3453 34.4767 17.98V27.5H29.3087V17.98C29.3087 17.028 29.15 16.314 28.8327 15.838C28.538 15.3393 28.0394 15.09 27.3367 15.09C26.8834 15.09 26.4754 15.2033 26.1127 15.43C25.7727 15.634 25.5007 15.9513 25.2967 16.382C25.1154 16.8127 25.0247 17.3453 25.0247 17.98V27.5H20.0607V11.86H25.0247V14.172C25.4554 13.3333 26.0447 12.676 26.7927 12.2C27.5634 11.724 28.4814 11.486 29.5467 11.486C30.7707 11.486 31.7454 11.7127 32.4707 12.166C33.196 12.5967 33.7174 13.2313 34.0347 14.07C34.6014 13.254 35.304 12.6193 36.1427 12.166C36.9814 11.7127 37.9334 11.486 38.9987 11.486C40.2227 11.486 41.186 11.724 41.8887 12.2C42.614 12.6533 43.1354 13.322 43.4527 14.206C43.77 15.09 43.9287 16.1667 43.9287 17.436ZM81.6785 5.978C81.6785 5.162 81.9732 4.50467 82.5625 4.006C83.1518 3.48467 83.8545 3.224 84.6705 3.224C85.5092 3.224 86.2118 3.48467 86.7785 4.006C87.3678 4.50467 87.6625 5.162 87.6625 5.978C87.6625 6.794 87.3678 7.46267 86.7785 7.984C86.2118 8.50533 85.5092 8.766 84.6705 8.766C83.8545 8.766 83.1518 8.50533 82.5625 7.984C81.9732 7.46267 81.6785 6.794 81.6785 5.978ZM82.1885 11.86H87.1525V27.5H82.1885V11.86ZM96.447 11.86V27.5H91.381V11.86H96.447ZM100.969 17.164C100.697 16.892 100.402 16.6767 100.085 16.518C99.7903 16.3593 99.4163 16.28 98.963 16.28C98.4643 16.28 98.0223 16.416 97.637 16.688C97.2517 16.96 96.957 17.3567 96.753 17.878C96.549 18.3993 96.447 19.034 96.447 19.782L95.223 17.98C95.223 16.7333 95.461 15.6227 95.937 14.648C96.4357 13.6733 97.0817 12.9027 97.875 12.336C98.6683 11.7693 99.4957 11.486 100.357 11.486C100.924 11.486 101.468 11.5993 101.989 11.826C102.51 12.0527 102.907 12.37 103.179 12.778L100.969 17.164ZM109.179 19.68C109.179 20.5187 109.361 21.244 109.723 21.856C110.086 22.4453 110.585 22.91 111.219 23.25C111.877 23.59 112.579 23.76 113.327 23.76C113.962 23.76 114.563 23.6693 115.129 23.488C115.719 23.284 116.251 23.012 116.727 22.672C117.226 22.332 117.634 21.9127 117.951 21.414V26.412C117.407 26.8427 116.727 27.194 115.911 27.466C115.095 27.7153 114.098 27.84 112.919 27.84C111.197 27.84 109.644 27.5 108.261 26.82C106.901 26.14 105.825 25.188 105.031 23.964C104.261 22.74 103.875 21.312 103.875 19.68C103.875 18.0253 104.261 16.5973 105.031 15.396C105.825 14.172 106.901 13.22 108.261 12.54C109.644 11.86 111.197 11.52 112.919 11.52C114.098 11.52 115.095 11.656 115.911 11.928C116.727 12.1773 117.407 12.4947 117.951 12.88V17.912C117.634 17.4133 117.215 16.994 116.693 16.654C116.195 16.314 115.651 16.0533 115.061 15.872C114.472 15.6907 113.894 15.6 113.327 15.6C112.579 15.6 111.877 15.7813 111.219 16.144C110.585 16.5067 110.086 16.994 109.723 17.606C109.361 18.218 109.179 18.9093 109.179 19.68ZM121.662 0.979999H126.83V27.5H121.662V0.979999ZM138.782 27.84C136.969 27.84 135.394 27.5113 134.056 26.854C132.742 26.174 131.722 25.222 130.996 23.998C130.271 22.774 129.908 21.3347 129.908 19.68C129.908 18.0027 130.26 16.552 130.962 15.328C131.665 14.104 132.674 13.1633 133.988 12.506C135.326 11.8487 136.901 11.52 138.714 11.52C140.528 11.52 142.058 11.8373 143.304 12.472C144.551 13.084 145.503 13.9793 146.16 15.158C146.818 16.3367 147.146 17.7647 147.146 19.442C147.146 19.6913 147.146 19.9407 147.146 20.19C147.146 20.4167 147.124 20.6093 147.078 20.768H132.798V17.912H142.454L141.23 19.476C141.344 19.3173 141.434 19.1247 141.502 18.898C141.593 18.6487 141.638 18.4447 141.638 18.286C141.638 17.606 141.514 17.0167 141.264 16.518C141.015 16.0193 140.664 15.634 140.21 15.362C139.757 15.09 139.224 14.954 138.612 14.954C137.842 14.954 137.196 15.124 136.674 15.464C136.153 15.804 135.756 16.3253 135.484 17.028C135.235 17.708 135.099 18.5693 135.076 19.612C135.076 20.564 135.212 21.38 135.484 22.06C135.756 22.74 136.164 23.2613 136.708 23.624C137.252 23.964 137.921 24.134 138.714 24.134C139.621 24.134 140.392 23.964 141.026 23.624C141.684 23.284 142.205 22.774 142.59 22.094L147.18 23.216C146.364 24.7573 145.254 25.9133 143.848 26.684C142.466 27.4547 140.777 27.84 138.782 27.84Z" fill="#252727"/>
</svg>
