<svg width="20" height="20" viewBox="0 0 43 24" fill="none" xmlns="http://www.w3.org/2000/svg">
<path d="M21.0632 0C11.1228 0 2.36424 6.88992 0.0406503 15.9182C-0.0462327 16.2567 0.00488526 16.6158 0.182759 16.9165C0.360632 17.2173 0.65069 17.435 0.989124 17.5219C1.32756 17.6088 1.68664 17.5577 1.98739 17.3798C2.28813 17.2019 2.5059 16.9119 2.59278 16.5734C4.59498 8.7939 12.3515 2.63446 21.0632 2.63446C29.7748 2.63446 37.5559 8.79607 39.5575 16.5734C39.6444 16.9119 39.8622 17.2019 40.1629 17.3798C40.4637 17.5577 40.8228 17.6088 41.1612 17.5219C41.4996 17.435 41.7897 17.2173 41.9676 16.9165C42.1454 16.6158 42.1966 16.2567 42.1097 15.9182C39.7855 6.88775 31.0035 0 21.0632 0ZM21.0769 7.02523C16.405 7.02523 12.5904 10.8399 12.5904 15.5118C12.5904 20.1836 16.405 24 21.0769 24C25.7487 24 29.5651 20.1836 29.5651 15.5118C29.5651 10.8399 25.7487 7.02523 21.0769 7.02523ZM21.0769 9.65969C24.325 9.65969 26.9307 12.2637 26.9307 15.5118C26.9307 18.7598 24.325 21.3655 21.0769 21.3655C17.8288 21.3655 15.2248 18.7598 15.2248 15.5118C15.2248 12.2637 17.8288 9.65969 21.0769 9.65969Z" fill="#404040"/>
</svg>
