<svg width="20" height="20" viewBox="0 0 20 20" fill="none" xmlns="http://www.w3.org/2000/svg">
<path d="M13.6415 2.33701L13.5354 2.44308L13.6415 2.33701C12.463 1.15856 10.4764 1.48095 9.731 2.97159L9.731 2.97159L7.70151 7.03066L7.83568 7.09774L7.70151 7.03066C7.64597 7.14174 7.54915 7.22665 7.43176 7.26719L7.43176 7.26719L3.95986 8.46656L3.95986 8.46656C3.12789 8.75399 2.88392 9.81314 3.50632 10.4356L3.61239 10.3295L3.50633 10.4356L5.98734 12.9166L2.394 16.5099L2.35007 16.5539L2.35007 16.616L2.35 17.4999L2.34999 17.6499H2.5H3.38395H3.44608L3.49002 17.606L7.08335 14.0126L9.56435 16.4937L9.56436 16.4937C10.1868 17.116 11.2459 16.872 11.5334 16.0401L11.3916 15.9911L11.5334 16.0401L12.7328 12.5681L12.7328 12.5681C12.7733 12.4508 12.8582 12.354 12.9692 12.2984C12.9693 12.2984 12.9693 12.2984 12.9693 12.2984L17.0283 10.2689L16.9613 10.1348L17.0283 10.2689C18.519 9.52355 18.8414 7.53693 17.6629 6.35848L13.6415 2.33701ZM11.1174 3.66477L11.1174 3.66476C11.3895 3.12041 12.1151 3.00266 12.5454 3.43303L16.5669 7.4545C16.9973 7.88485 16.8795 8.61037 16.3352 8.8825L16.3352 8.88251L12.2761 10.9121L12.2761 10.9121C11.8026 11.1489 11.4406 11.5616 11.2677 12.0621L10.2554 14.9926L5.00738 9.74457L7.93784 8.73221C7.93785 8.7322 7.93786 8.7322 7.93786 8.7322C8.43831 8.55939 8.85113 8.19737 9.08791 7.72383L9.08791 7.72383L11.1174 3.66477Z" fill="#FCFCFC" stroke="#FCFCFC" stroke-width="0.3"/>
</svg>
