<svg width="30" height="30" viewBox="0 0 30 30" fill="none" xmlns="http://www.w3.org/2000/svg">
<g id="Arrow Upload / undefined / Glyph: undefined">
<path id="Vector" d="M22.8123 4.38751C23.33 4.38766 23.75 3.96805 23.75 3.45029C23.75 2.93252 23.3305 2.51266 22.8127 2.51251L6.56277 2.50781C6.045 2.50766 5.625 2.92728 5.625 3.44504C5.625 3.96281 6.04446 4.38266 6.56223 4.38281L22.8123 4.38751ZM14.5603 27.4977L14.6875 27.5064C15.1621 27.5064 15.5544 27.1536 15.6165 26.696L15.625 26.5689L15.6237 9.46259L20.276 14.113C20.6089 14.4457 21.1297 14.476 21.4967 14.2036L21.6019 14.1129C21.9346 13.78 21.9649 13.2591 21.6925 12.8921L21.6018 12.787L15.3546 6.54126C15.022 6.20865 14.5015 6.17827 14.1345 6.45022L14.0294 6.54089L7.77504 12.7866C7.40867 13.1525 7.40826 13.7461 7.77414 14.1125C8.10674 14.4455 8.62755 14.4761 8.99475 14.2041L9.09996 14.1134L13.7487 9.47134L13.75 26.5689C13.75 27.0435 14.1027 27.4357 14.5603 27.4977Z" fill="#404040"/>
</g>
</svg>
